<?xml version="1.0" encoding="utf-8"?>
<!-- Generator: Adobe Illustrator 15.1.0, SVG Export Plug-In . SVG Version: 6.00 Build 0)  -->
<!DOCTYPE svg PUBLIC "-//W3C//DTD SVG 1.1//EN" "http://www.w3.org/Graphics/SVG/1.1/DTD/svg11.dtd">
<svg version="1.1" id="Layer_1" xmlns="http://www.w3.org/2000/svg" xmlns:xlink="http://www.w3.org/1999/xlink" x="0px" y="0px"
	 width="636.279px" height="638px" viewBox="0 0 636.279 638" enable-background="new 0 0 636.279 638" xml:space="preserve">
<g>
	<g id="Ndl7qU.tif">
		<g>
			<path fill="#555555" d="M305.833,73.54c8.965,0,17.929,0,26.896,0c127.375,16.257,199.275,86.655,216.047,210.875
				c0,8.749,0,17.5,0,26.249c-16.851,124.421-88.941,194.946-216.943,210.875c-8.367,0-16.73,0-25.102,0
				C178.715,505.622,106.609,435.11,89.786,310.664c0-8.749,0-17.5,0-26.249c3.912-61.759,32.941-110.992,68.132-145.251
				C194.358,103.692,242.856,78.055,305.833,73.54z M175.846,145.29c27.747,38.539,49.765,82.676,54.685,143.5
				c26.296,0,52.592,0,78.889,0c0-66.21,0-132.415,0-198.625C249.806,93.814,207.989,114.832,175.846,145.29z M326.452,288.79
				c26.594,0,53.188,0,79.784,0c4.765-61.552,26.979-106.083,55.581-144.375c-32.49-30.124-74.265-51.183-134.471-54.25
				C325.256,154.625,327.049,222.875,326.452,288.79z M473.472,155.79c-25.047,36.224-46.55,75.898-50.202,133
				c36.155,0,72.313,0,108.474,0C528.213,228.938,505.657,187.667,473.472,155.79z M163.295,156.664
				c-30.43,32.718-53.297,72.813-56.477,132.125c35.265-0.582,72.907,1.159,106.679-0.875
				C209.019,232.199,188.708,191.941,163.295,156.664z M107.715,304.54c0.549,58.375,24.635,101.375,55.58,133
				c24.972-36.294,47.207-75.256,50.202-133C178.235,304.54,142.976,304.54,107.715,304.54z M229.634,307.164
				c-3.331,62.381-27.136,104.76-55.581,142.624c34.449,28.796,74.61,52.013,135.366,55.128c0-66.799,0-133.58,0-200.376
				c-25.997,0-51.995,0-77.992,0C230.3,304.9,229.594,305.666,229.634,307.164z M326.452,504.916
				c61.293-2.892,103.4-24.491,136.262-55.128c-29.62-37.884-52.582-82.26-56.478-145.249c-26.299,0-52.592,0-78.89,0
				C325.256,369.586,327.049,438.417,326.452,504.916z M424.166,304.54c0.448,57.018,24.811,98.289,50.202,133.875
				c31.878-32.182,54.401-73.482,57.373-133.875C495.883,304.54,460.024,304.54,424.166,304.54z"/>
			<path fill="#FFFFFF" d="M309.419,90.164c0,66.211,0,132.415,0,198.625c-26.297,0-52.593,0-78.889,0
				c-4.92-60.824-26.938-104.961-54.685-143.5C207.989,114.832,249.806,93.814,309.419,90.164z"/>
			<path fill="#FFFFFF" d="M327.35,90.164c60.205,3.067,101.979,24.127,134.47,54.25c-28.602,38.292-50.816,82.823-55.581,144.375
				c-26.599,0-53.19,0-79.784,0C327.049,222.875,325.256,154.625,327.35,90.164z"/>
			<path fill="#FFFFFF" d="M531.741,288.79c-36.158,0-72.316,0-108.474,0c3.652-57.102,25.155-96.776,50.202-133
				C505.657,187.667,528.213,228.938,531.741,288.79z"/>
			<path fill="#FFFFFF" d="M213.497,287.915c-33.771,2.034-71.414,0.292-106.679,0.875c3.18-59.312,26.047-99.407,56.477-132.125
				C188.708,191.941,209.019,232.199,213.497,287.915z"/>
			<path fill="#FFFFFF" d="M213.497,304.54c-2.995,57.745-25.23,96.707-50.202,133c-30.945-31.625-55.031-74.626-55.58-133
				C142.976,304.54,178.235,304.54,213.497,304.54z"/>
			<path fill="#FFFFFF" d="M231.427,304.54c25.997,0,51.995,0,77.992,0c0,66.796,0,133.578,0,200.376
				c-60.756-3.115-100.917-26.332-135.366-55.128c28.445-37.864,52.25-80.243,55.581-142.624
				C229.594,305.666,230.3,304.9,231.427,304.54z"/>
			<path fill="#FFFFFF" d="M327.35,304.54c26.297,0,52.592,0,78.889,0c3.896,62.989,26.855,107.365,56.478,145.249
				c-32.859,30.637-74.969,52.236-136.262,55.128C327.049,438.417,325.256,369.586,327.35,304.54z"/>
			<path fill="#FFFFFF" d="M531.741,304.54c-2.972,60.393-25.495,101.694-57.373,133.875
				c-25.394-35.587-49.754-76.857-50.202-133.875C460.024,304.54,495.883,304.54,531.741,304.54z"/>
		</g>
	</g>
	<rect x="331.96" y="182.793" fill="#FFFFFF" width="157.855" height="81.708"/>
	<g>
		<path fill="#0066CC" stroke="#0066CC" stroke-width="2" stroke-miterlimit="10" d="M379.103,241.994h-29.396
			c0.042-3.483,0.9-6.524,2.583-9.126c1.683-2.603,3.979-4.861,6.89-6.784c1.396-0.995,2.85-1.97,4.366-2.909
			c1.517-0.938,2.909-1.951,4.182-3.032c1.271-1.082,2.315-2.249,3.138-3.512c0.817-1.262,1.251-2.708,1.292-4.353
			c0-0.756-0.092-1.569-0.276-2.43c-0.184-0.86-0.543-1.656-1.075-2.401c-0.535-0.738-1.271-1.358-2.214-1.857
			c-0.946-0.505-2.175-0.754-3.691-0.754c-1.395,0-2.551,0.269-3.476,0.812c-0.921,0.536-1.659,1.283-2.214,2.22
			c-0.553,0.938-0.963,2.048-1.229,3.33c-0.269,1.282-0.422,2.661-0.463,4.143h-7.013c0-2.316,0.315-4.47,0.954-6.45
			c0.636-1.981,1.59-3.693,2.859-5.136c1.271-1.437,2.816-2.565,4.644-3.388c1.822-0.822,3.945-1.233,6.364-1.233
			c2.625,0,4.817,0.42,6.582,1.262c1.761,0.841,3.188,1.903,4.272,3.177c1.085,1.283,1.854,2.678,2.308,4.179
			c0.451,1.495,0.676,2.929,0.676,4.288c0,1.683-0.269,3.205-0.8,4.562c-0.532,1.36-1.25,2.612-2.151,3.75
			c-0.901,1.14-1.927,2.191-3.076,3.156c-1.146,0.957-2.335,1.856-3.564,2.699c-1.23,0.841-2.458,1.638-3.689,2.401
			c-1.23,0.757-2.367,1.522-3.412,2.278c-1.048,0.765-1.959,1.551-2.738,2.372c-0.776,0.823-1.312,1.694-1.598,2.612h20.971v6.124
			H379.103z"/>
		<path fill="#0066CC" stroke="#0066CC" stroke-width="2" stroke-miterlimit="10" d="M398.599,199.133
			c3.077,0,5.585,0.689,7.534,2.074c1.946,1.379,3.465,3.14,4.552,5.282c1.084,2.143,1.822,4.489,2.216,7.051
			c0.389,2.564,0.585,5.042,0.585,7.444s-0.196,4.88-0.585,7.443c-0.394,2.564-1.132,4.917-2.216,7.052
			c-1.087,2.143-2.604,3.903-4.552,5.281c-1.949,1.386-4.457,2.075-7.534,2.075c-3.073,0-5.586-0.689-7.53-2.075
			c-1.949-1.378-3.47-3.139-4.555-5.281c-1.087-2.136-1.823-4.488-2.213-7.052c-0.392-2.562-0.585-5.042-0.585-7.443
			s0.193-4.879,0.585-7.444c0.39-2.562,1.126-4.908,2.213-7.051c1.085-2.142,2.604-3.903,4.555-5.282
			C393.013,199.823,395.522,199.133,398.599,199.133z M398.599,237.134c1.519,0,2.789-0.43,3.813-1.292
			c1.021-0.861,1.833-2.019,2.431-3.482c0.592-1.464,1.012-3.169,1.261-5.13c0.244-1.959,0.368-4.045,0.368-6.246
			c0-2.201-0.124-4.272-0.368-6.21c-0.249-1.942-0.669-3.654-1.261-5.137c-0.598-1.482-1.407-2.649-2.431-3.511
			c-1.024-0.86-2.297-1.291-3.813-1.291c-1.56,0-2.84,0.431-3.843,1.291c-1.005,0.862-1.806,2.029-2.397,3.511
			c-0.597,1.482-1.018,3.194-1.263,5.137c-0.245,1.938-0.369,4.009-0.369,6.21c0,2.201,0.124,4.287,0.369,6.246
			c0.245,1.961,0.666,3.666,1.263,5.13c0.594,1.463,1.395,2.621,2.397,3.482C395.759,236.704,397.039,237.134,398.599,237.134z"/>
		<path fill="#0066CC" stroke="#0066CC" stroke-width="2" stroke-miterlimit="10" d="M418.956,206.939
			c1.476,0,2.909-0.125,4.303-0.364c1.396-0.239,2.655-0.639,3.784-1.196c1.128-0.563,2.091-1.28,2.891-2.162
			c0.802-0.88,1.321-1.961,1.567-3.243h5.72v42.02h-7.686v-29.652h-10.579V206.939L418.956,206.939z"/>
		<path fill="#0066CC" stroke="#0066CC" stroke-width="2" stroke-miterlimit="10" d="M457.454,199.975h22.266v6.123h-17.038
			l-2.214,10.687l0.123,0.115c0.943-1.034,2.145-1.827,3.601-2.364c1.451-0.545,2.898-0.813,4.337-0.813
			c2.129,0,4.034,0.347,5.718,1.052c1.682,0.699,3.096,1.675,4.244,2.938c1.146,1.263,2.019,2.756,2.611,4.477
			c0.596,1.714,0.894,3.579,0.894,5.579c0,1.683-0.275,3.415-0.83,5.194c-0.553,1.78-1.438,3.397-2.646,4.861
			c-1.207,1.463-2.756,2.66-4.643,3.598c-1.885,0.945-4.141,1.415-6.766,1.415c-2.093,0-4.026-0.268-5.812-0.813
			c-1.785-0.537-3.353-1.349-4.705-2.43c-1.354-1.082-2.43-2.411-3.229-3.991c-0.803-1.578-1.242-3.432-1.323-5.556h7.011
			c0.206,2.285,1.006,4.036,2.399,5.255c1.392,1.221,3.235,1.833,5.535,1.833c1.476,0,2.727-0.24,3.751-0.719
			c1.021-0.486,1.854-1.146,2.49-1.982c0.635-0.84,1.087-1.823,1.354-2.944c0.264-1.119,0.398-2.323,0.398-3.598
			c0-1.166-0.164-2.276-0.49-3.337c-0.329-1.054-0.822-1.99-1.479-2.786c-0.654-0.803-1.509-1.444-2.554-1.922
			c-1.044-0.479-2.265-0.718-3.66-0.718c-1.475,0-2.857,0.268-4.147,0.805c-1.294,0.544-2.227,1.551-2.801,3.032h-7.011
			L457.454,199.975z"/>
	</g>
</g>
<g>
	<path fill="#FFFFFF" d="M569.419,467c-199.483-41.312-304.517-41.312-504,0c0-62.4,0-93.6,0-156
		c199.483,41.312,304.517,41.309,504,0C569.419,373.4,569.419,404.6,569.419,467z"/>
</g>
<title>Layer 1</title>
<g id="zWTlbn_1_">
</g>
<rect x="151.738" y="583.876" fill="#FFFFFF" width="335.083" height="10"/>
<g>
	<g>
		<g>
			<path fill="#555555" d="M69.623,458.884c0-55.306,0-82.961,0-138.268c9.555,2.235,14.337,3.305,23.905,5.329
				c10.035,2.123,26.886,10.52,26.886,45.128c0,25.817-9.875,41.285-27.06,42.649c-0.702,0.058-1.053,0.083-1.755,0.142
				c0,16.04,0,24.062,0,40.103C82.804,455.844,78.408,456.826,69.623,458.884z M93.702,381.858c2.643,0.067,5.14,0.133,5.14-11.531
				c0-10.903-2.191-11.121-5.225-11.434c-0.807-0.083-1.21-0.126-2.017-0.209c0,9.246,0,13.872,0,23.118
				C92.44,381.827,92.86,381.836,93.702,381.858z"/>
			<path fill="#FFFFFF" d="M93.528,332.608c11.884,2.252,22.391,11.783,22.391,38.194c0,27.991-11.462,35.619-22.563,36.257
				c-2.499,0.146-3.748,0.219-6.245,0.364c0,16.281,0.001,24.422,0.001,40.703c-5.203,1.015-7.804,1.536-13.003,2.606
				c0-48.785,0-73.182,0-121.968C81.872,330.366,85.756,331.136,93.528,332.608 M87.111,388.488
				c2.636,0.011,3.954,0.018,6.591,0.026c6.853,0.028,9.631-5.642,9.631-17.901c0-11.812-2.691-17.503-9.716-18.377
				c-2.603-0.324-3.904-0.489-6.506-0.822C87.111,366.244,87.111,373.658,87.111,388.488 M93.528,319.286
				c-7.772-1.816-11.656-2.769-19.42-4.738c-3.588-0.911-5.381-1.372-8.968-2.316c0,5.863,0,8.793,0,14.656
				c0,50.291,0,75.438,0,125.728c0,5.861,0,8.794,0,14.657c3.586-0.944,5.379-1.408,8.968-2.319c5.199-1.32,7.8-1.964,13.003-3.215
				c3.591-0.863,5.386-1.284,8.979-2.114c0-5.284,0-7.927,0-13.211c0-10.567,0-15.854,0-26.419
				c7.538-1.445,13.825-5.547,18.712-11.896c6.707-8.714,10.11-20.805,10.11-36.756c0-15.355-3.241-27.438-9.629-36.727
				C109.829,326.686,102.507,321.385,93.528,319.286L93.528,319.286z"/>
		</g>
		<g>
			<path fill="#555555" d="M159.319,441.658c-3.742-11.285-5.612-17.076-9.353-28.998c0,12.177,0,18.267,0,30.441
				c-8.785,1.396-13.176,2.14-21.952,3.714c0-45.651,0-68.479,0-114.133c9.828,1.764,14.744,2.592,24.582,4.129
				c12.013,1.88,26.347,9.479,26.347,36.525c0,11.212-3.451,20.209-9.6,25.812c5.306,16.278,7.959,24.106,13.268,39.265
				C173.29,439.614,168.631,440.26,159.319,441.658z M152.16,381.65c2.765,0.064,5.154,0.121,5.154-8.959
				c0-4.604-0.781-6.387-1.247-7.041c-0.618-0.872-1.934-1.394-3.908-1.541c-0.878-0.066-1.315-0.103-2.193-0.168
				c0,7.062,0,10.594,0,17.654C150.844,381.619,151.282,381.629,152.16,381.65z"/>
			<path fill="#FFFFFF" d="M152.595,342.341c13.568,1.9,21.841,10.809,21.841,30.794c0,12.161-4.353,20.207-10.618,23.936
				c4.908,15.327,7.362,22.712,12.271,37.029c-5.467,0.659-8.2,1.007-13.664,1.728c-4.35-13.073-6.524-19.808-10.873-33.732
				c-2.436,0.089-3.653,0.138-6.088,0.229c0,14.345,0,21.518,0,35.86c-5.183,0.759-7.772,1.147-12.952,1.96
				c0-40.312-0.001-60.47-0.001-100.782C140.542,340.617,144.559,341.215,152.595,342.341 M145.465,387.136
				c2.678,0.021,4.015,0.03,6.694,0.051c6.437,0.051,9.659-3.795,9.659-14.272c0-9.979-3.222-13.742-9.658-14.336
				c-2.679-0.247-4.017-0.375-6.695-0.632C145.465,369.62,145.465,375.46,145.465,387.136 M152.595,331.285
				c-8.037-1.388-12.053-2.124-20.083-3.677c-3.599-0.696-5.397-1.052-8.995-1.779c0,4.835,0,7.25,0,12.085
				c0,41.47,0,62.203,0,103.672c0,4.835-0.001,7.254-0.001,12.089c3.597-0.729,5.396-1.085,8.995-1.781
				c5.18-1.002,7.771-1.484,12.953-2.419c3.601-0.646,5.401-0.963,9.003-1.578c0-2.242,0-3.365,0-5.609
				c0.699,2.136,1.048,3.196,1.747,5.311c2.484-0.42,3.726-0.623,6.211-1.025c5.464-0.891,8.198-1.312,13.665-2.125
				c5.215-0.775,7.822-1.146,13.04-1.854c-1.844-5.159-2.767-7.771-4.61-13.053c-3.942-11.292-5.912-17.075-9.853-28.975
				c5.656-6.622,8.782-15.888,8.782-27.03c0-12.123-2.816-21.716-8.369-29.004C169.712,337.484,162.145,332.935,152.595,331.285
				L152.595,331.285z"/>
		</g>
		<g>
			<path fill="#555555" d="M188.299,437.698c0-38.356,0-57.535,0-95.896c18.376,2.268,27.571,3.204,45.968,4.69
				c0,8.975,0.001,13.458,0.001,22.433c-9.486-0.369-14.229-0.578-23.709-1.047c0,3.552,0,5.327,0,8.878
				c6.832,0.2,10.248,0.293,17.082,0.463c0,8.793,0,13.188,0,21.98c-6.834,0.128-10.251,0.2-17.083,0.352c0,4.958,0,7.438,0,12.396
				c9.969-0.5,14.955-0.725,24.93-1.111c0,8.828,0,13.244,0,22.072C216.602,434.416,207.162,435.373,188.299,437.698z"/>
			<path fill="#FFFFFF" d="M229.755,350.677c0,5.407,0,8.108,0,13.518c-9.485-0.474-14.228-0.736-23.708-1.33
				c0,7.423,0,11.133,0,18.556c6.831,0.133,10.247,0.192,17.081,0.306c0,5.182,0.001,7.771,0.001,12.951
				c-6.834,0.069-10.251,0.108-17.082,0.189c0,8.844,0,13.267,0,22.108c9.968-0.632,14.954-0.916,24.928-1.411
				c0,5.27,0,7.902,0,13.172c-15.274,1.146-22.909,1.84-38.168,3.468c0-33.96,0-50.94,0-84.902
				C207.579,348.874,214.97,349.552,229.755,350.677 M238.781,342.368c-3.61-0.306-5.416-0.465-9.026-0.804
				c-14.785-1.39-22.176-2.224-36.947-4.164c-3.606-0.477-5.411-0.721-9.017-1.229c0,4.053,0,6.078,0,10.131
				c0,34.76,0,52.139,0,86.895c0,4.052,0,6.078,0,10.13c3.605-0.508,5.409-0.752,9.016-1.229
				c15.259-2.007,22.895-2.859,38.169-4.273c3.61-0.334,5.415-0.495,9.025-0.796c0-3.576,0-5.363,0-8.939
				c0-5.181-0.001-7.771-0.001-12.953c0-3.574,0-5.36,0-8.938c-3.611,0.104-5.415,0.161-9.025,0.277
				c-6.364,0.203-9.544,0.312-15.905,0.555c0-1.151-0.001-1.729-0.001-2.879c3.224-0.104,4.837-0.149,8.062-0.243
				c3.609-0.105,5.413-0.156,9.023-0.252c0-3.628,0.001-5.439,0.001-9.067c0-5.088,0-7.634,0-12.722
				c0-3.396-0.001-5.093-0.001-8.487c2.65,0.083,3.977,0.124,6.628,0.2c0-3.584,0-5.375,0-8.959c0-5.316,0-7.977,0-13.293
				C238.781,347.744,238.781,345.952,238.781,342.368L238.781,342.368z"/>
		</g>
		<g>
			<path fill="#555555" d="M242.853,432.349c0-34.075,0-51.115,0-85.194c8.572,0.625,12.858,0.896,21.433,1.352
				c22.936,1.22,34.091,14.29,34.091,41.055c0,26.647-11.473,40.236-34.09,41.438C255.712,431.453,251.424,431.724,242.853,432.349z
				 M265.507,409.674c6.191-0.156,10.574-1.667,10.574-20.119c0-17.997-4.419-19.471-10.663-19.628
				c-0.112-0.003-0.169-0.005-0.281-0.008c0,15.907,0,23.858,0,39.765C265.285,409.68,265.359,409.678,265.507,409.674z"/>
			<path fill="#FFFFFF" d="M264.285,352.811c17.356,0.826,29.574,9.008,29.574,36.748c0,27.937-12.479,36.317-29.574,37.133
				c-6.769,0.32-10.152,0.508-16.919,0.924c0-30.29-0.001-45.437-0.001-75.729C254.132,352.304,257.517,352.488,264.285,352.811
				 M260.622,414.132c1.954-0.063,2.931-0.097,4.885-0.156c11.166-0.342,15.089-6.874,15.089-24.421
				c0-16.96-3.924-23.586-15.178-23.93c-1.918-0.059-2.878-0.089-4.796-0.152C260.622,384.938,260.622,394.669,260.622,414.132
				 M264.285,344.196c-6.769-0.397-10.153-0.625-16.92-1.141c-3.611-0.272-5.415-0.419-9.025-0.727c0,3.587-0.001,5.379-0.001,8.966
				c0,30.763,0.001,46.146,0.001,76.906c0,3.586,0,5.381,0,8.967c3.61-0.307,5.416-0.452,9.027-0.727
				c6.767-0.516,10.151-0.741,16.919-1.141c12-0.704,21.413-4.598,27.976-11.66c7.154-7.696,10.631-18.772,10.631-34.086
				c0-15.255-3.453-26.25-10.555-33.84C285.819,348.752,276.38,344.906,264.285,344.196L264.285,344.196z M269.653,403.671
				c0-11.104,0-16.653,0-27.757c0.914,1.714,1.913,5.451,1.913,13.641C271.565,398.008,270.571,401.885,269.653,403.671
				L269.653,403.671z"/>
		</g>
		<g>
			<path fill="#555555" d="M306.705,429.567c0-31.854,0-47.778,0-79.636c8.919,0.127,13.378,0.146,22.297,0.089
				c0,31.783,0,47.679,0,79.46C320.083,429.426,315.624,429.44,306.705,429.567z"/>
			<path fill="#FFFFFF" d="M324.484,354.188c0,28.452,0,42.679,0,71.129c-5.307-0.012-7.957-0.001-13.265,0.047
				c0-28.488,0-42.731,0-71.223C316.527,354.188,319.18,354.197,324.484,354.188 M333.52,345.831
				c-3.613,0.042-5.42,0.054-9.033,0.062c-5.307,0.015-7.959,0-13.264-0.059c-3.613-0.04-5.421-0.067-9.033-0.141
				c0,3.332,0,4.997,0,8.329c0,28.582,0,42.872,0,71.451c0,3.332,0,5,0,8.332c3.612-0.071,5.42-0.103,9.033-0.143
				c5.307-0.059,7.959-0.071,13.264-0.059c3.613,0.009,5.421,0.021,9.033,0.062c0-3.321,0-4.983,0-8.305
				c0-28.49-0.002-42.736-0.002-71.229C333.52,350.814,333.52,349.153,333.52,345.831L333.52,345.831z"/>
		</g>
		<g>
			<path fill="#555555" d="M366.539,431.64c-10.939-0.459-29.295-6.171-29.295-41.981c0-37.062,20.732-41.528,29.645-41.906
				c15.156-0.644,24.06,8.626,26.465,28.36c0.194,1.591,0.29,2.387,0.484,3.979c-8.495,1.862-12.742,2.749-21.24,4.484
				c-0.269-1.809-0.401-2.709-0.672-4.516c-1.657-11.139-4.047-11.062-5.475-11.033c-4.273,0.089-6.825,7.793-6.825,20.627
				c0,13.202,2.617,21.13,7.001,21.223c1.575,0.033,4.21,0.117,5.995-12.016c0.262-1.779,0.393-2.671,0.654-4.453
				c8.562,1.607,12.844,2.435,21.401,4.164c-0.259,1.666-0.389,2.497-0.646,4.16C390.897,422.853,381.649,432.274,366.539,431.64z"
				/>
			<path fill="#FFFFFF" d="M366.888,351.991c14.046-0.536,20.062,9.099,21.981,24.724c-4.989,1.106-7.483,1.646-12.476,2.7
				c-1.481-10.017-3.924-14.78-9.942-14.63c-7.678,0.19-11.342,8.909-11.342,24.867c0,16.351,3.752,25.264,11.518,25.462
				c6.018,0.151,8.81-4.297,10.467-15.616c4.989,0.975,7.485,1.471,12.477,2.492c-2.356,15.027-8.46,25.959-23.03,25.409
				c-14.832-0.562-24.778-11.971-24.778-37.745C341.761,364.168,352.145,352.554,366.888,351.991 M366.888,343.508
				c-10.542,0.492-19.626,5.239-25.577,13.446c-5.695,7.853-8.584,18.813-8.584,32.702c0,40.847,23.647,45.756,33.812,46.226
				c9.685,0.448,17.757-2.79,23.346-9.77c4.266-5.325,7.079-12.733,8.609-22.626c0.518-3.351,0.775-5.027,1.295-8.393
				c-3.404-0.676-5.106-1.007-8.511-1.663c-4.988-0.961-7.484-1.433-12.476-2.356c-3.529-0.655-5.297-0.979-8.828-1.618
				c3.312-0.655,4.966-0.986,8.272-1.655c4.99-1.009,7.482-1.521,12.473-2.567c3.233-0.681,4.853-1.021,8.083-1.72
				c-0.388-3.213-0.582-4.818-0.97-8.021c-1.22-10.068-3.901-17.547-8.198-22.823C384.285,346.096,376.42,343.062,366.888,343.508
				L366.888,343.508z M366.451,405.666c-0.918-1.869-2.311-6.297-2.311-16.014c0-8.688,1.146-13.007,2.016-15.037
				c0.387,1.205,0.851,3.105,1.295,6.082c0.537,3.592,0.807,5.391,1.344,8.992c0.254-0.052,0.38-0.075,0.634-0.125
				c-0.512,3.472-0.769,5.207-1.278,8.67C367.568,402.164,366.932,404.408,366.451,405.666L366.451,405.666z"/>
		</g>
		<g>
			<path fill="#555555" d="M410.866,433.068c0-25.668,0-38.501,0-64.17c-6.141,0.239-9.207,0.349-15.35,0.548
				c0-8.75,0-13.122,0-21.872c21.229-1.433,31.839-2.406,53.04-4.872c0,9.761,0,14.641,0,24.399
				c-6.167,0.347-9.252,0.511-15.421,0.812c0,26.881,0,40.32,0,67.199C424.231,434.205,419.777,433.795,410.866,433.068z"/>
			<path fill="#FFFFFF" d="M444.049,348.077c0,5.767,0,8.648,0,14.417c-6.167,0.405-9.252,0.594-15.422,0.947
				c0,26.61,0,39.92,0,66.53c-5.299-0.465-7.946-0.684-13.246-1.091c0-25.892,0-38.836,0-64.729
				c-6.138,0.308-9.209,0.447-15.349,0.707c0-5.268,0-7.9,0-13.166C417.647,350.566,426.451,349.845,444.049,348.077
				 M453.065,337.202c-3.606,0.479-5.409,0.711-9.019,1.157c-17.598,2.18-26.401,3.07-44.017,4.464
				c-3.611,0.285-5.417,0.42-9.028,0.672c0,3.498,0,5.249,0,8.747c0,5.188,0,7.786,0,12.977c0,3.498,0,5.246,0,8.744
				c3.611-0.086,5.417-0.131,9.028-0.229c2.526-0.068,3.792-0.104,6.318-0.18c0,21.868,0,32.803,0,54.668c0,3.589,0,5.386,0,8.975
				c3.61,0.309,5.418,0.471,9.028,0.812c5.3,0.502,7.947,0.771,13.246,1.344c3.608,0.393,5.412,0.598,9.021,1.021
				c0-3.828,0-5.745,0-9.573c0-23.329,0-34.994,0-58.324c2.562-0.103,3.844-0.153,6.401-0.264c3.607-0.152,5.41-0.231,9.017-0.396
				c0-3.977,0-5.963,0-9.938c0-5.896,0-8.846,0-14.742C453.065,343.162,453.065,341.177,453.065,337.202L453.065,337.202z"/>
		</g>
		<g>
			<path fill="#555555" d="M480.44,442.711c-14.547-2.193-30.103-16.938-30.103-52.961s15.556-50.769,30.103-52.962
				c14.503-2.188,29.98,10.261,29.98,52.962S494.943,444.897,480.44,442.711z M480.44,363.605
				c-4.861,0.36-7.767,10.126-7.767,26.145c0,16.08,2.978,26.281,7.767,26.645c4.734,0.359,7.679-9.843,7.679-26.645
				C488.119,373.012,485.248,363.248,480.44,363.605z"/>
			<path fill="#FFFFFF" d="M480.44,342.138c13.835-1.876,25.482,12.175,25.482,47.612s-11.648,49.489-25.482,47.613
				c-13.924-1.89-25.594-16.954-25.594-47.613S466.519,344.025,480.44,342.138 M480.44,421.744
				c7.918,0.722,12.18-10.926,12.18-31.994c0-21.066-4.262-32.204-12.18-31.494c-8.007,0.718-12.271,11.843-12.271,31.494
				C468.171,409.403,472.436,421.015,480.44,421.744 M480.44,331.439c-10.195,1.69-19.206,8.554-25.37,18.806
				c-6.13,10.195-9.239,23.247-9.239,39.507s3.109,29.309,9.239,39.504c6.164,10.252,15.175,17.112,25.37,18.805
				c10.158,1.688,19.136-2.449,25.275-12.714c6.108-10.206,9.203-25.845,9.203-45.597s-3.095-35.392-9.203-45.598
				C499.576,333.889,490.601,329.753,480.44,331.439L480.44,331.439z M480.409,410.846c-1.07-1.573-3.229-7.495-3.229-21.096
				c0-13.802,2.243-19.472,3.229-20.723c0.993,1.192,3.205,6.773,3.205,20.723C483.615,403.516,481.481,409.351,480.409,410.846
				L480.409,410.846z"/>
		</g>
		<g>
			<path fill="#555555" d="M549.541,453.283c-3.73-15.281-5.596-22.688-9.328-37.069c0,14.06,0,21.088,0,35.146
				c-8.767-1.77-13.154-2.606-21.93-4.196c0-45.93,0-68.896,0-114.825c9.826-1.779,14.734-2.726,24.552-4.729
				c11.986-2.446,26.255,2.152,26.255,39.486c0,15.478-3.434,28.057-9.558,34.893c5.285,21.593,7.927,32.853,13.208,56.428
				C563.467,456.262,558.826,455.237,549.541,453.283z M542.4,380.27c2.759-0.086,5.141-0.161,5.141-11.14
				c0-5.562-0.778-7.584-1.242-8.288c-0.616-0.936-1.929-1.303-3.896-1.106c-0.876,0.086-1.312,0.13-2.188,0.215
				c0,8.153,0,12.23,0,20.388C541.089,380.309,541.524,380.297,542.4,380.27z"/>
			<path fill="#FFFFFF" d="M542.835,334.098c13.539-2.475,21.769,6.497,21.769,33.34c0,16.332-4.331,27.19-10.573,31.523
				c4.891,19.566,7.335,29.735,12.223,50.952c-5.443-1.104-8.167-1.636-13.614-2.677c-4.337-17.855-6.505-26.461-10.844-43.096
				c-2.43-0.112-3.646-0.17-6.075-0.279c0,16.104,0,24.154,0,40.262c-5.174-0.915-7.762-1.358-12.938-2.218
				c0-41.726,0-62.587,0-104.312C530.805,336.262,534.815,335.562,542.835,334.098 M535.718,386.812
				c2.674-0.025,4.01-0.04,6.685-0.066c6.422-0.063,9.632-4.899,9.632-17.925c0-12.403-3.21-16.336-9.632-15.566
				c-2.675,0.32-4.011,0.478-6.685,0.786C535.718,367.149,535.718,373.704,535.718,386.812 M542.835,321.124
				c-8.019,1.808-12.03,2.67-20.057,4.312c-3.599,0.736-5.396,1.097-8.993,1.8c0,4.729,0,7.092,0,11.818c0,40.56,0,60.836,0,101.395
				c0,4.729,0,7.095,0,11.821c3.599,0.703,5.396,1.062,8.993,1.799c5.178,1.06,7.766,1.605,12.938,2.733
				c3.595,0.784,5.395,1.186,8.985,2c0-2.662,0-3.994,0-6.654c0.694,2.805,1.043,4.218,1.739,7.055
				c2.478,0.565,3.717,0.854,6.192,1.438c5.447,1.283,8.171,1.942,13.614,3.304c5.191,1.297,7.786,1.963,12.975,3.328
				c-1.834-8.419-2.752-12.562-4.586-20.728c-3.922-17.459-5.881-25.9-9.805-42.253c5.631-8.405,8.738-21.736,8.738-37.539
				c0-17.192-2.802-30.204-8.327-37.974C559.901,321.268,552.364,318.977,542.835,321.124L542.835,321.124z"/>
		</g>
	</g>
</g>
<g>
	<g>
		<path fill="#555555" stroke="#555555" stroke-miterlimit="10" d="M141.835,473.031c2.176,2.166,3.276,3.229,5.501,5.312
			c-1.638,6.578-2.373,9.91-3.667,16.653c-0.46,2.385-0.694,3.6-1.372,6.308c0.032,0.027,0.048,0.041,0.08,0.068
			c5.322-6.217,7.983-9.326,13.305-15.542c2.016,1.729,3.033,2.579,5.083,4.247c-8.314,10.244-12.47,15.371-20.784,25.615
			c-2.369-1.93-3.544-2.911-5.873-4.912c0.994-7.583,1.601-11.335,3.024-18.736c0.412-2.048,0.634-3.12,1.318-5.479
			c-0.029-0.028-0.043-0.042-0.073-0.07c-5.738,6.083-8.608,9.125-14.346,15.207c-2.206-2.084-3.299-3.145-5.462-5.296
			C127.873,487.06,132.528,482.381,141.835,473.031z"/>
		<path fill="#555555" stroke="#555555" stroke-miterlimit="10" d="M173.051,499.465c3.896,2.79,5.871,4.133,9.865,6.715
			c4.935,3.189,8.442,7.189,5.132,12.85c-2.431,4.152-5.959,4.416-8.985,3.438c-0.019,0.03-0.027,0.044-0.046,0.074
			c2.977,2.674,4.567,5.804,1.835,10.507c-3.335,5.742-9.828,4.717-15.413,1.12c-4.684-3.017-6.997-4.591-11.561-7.859
			C161.547,515.572,165.381,510.201,173.051,499.465z M175.058,517.449c2.788,1.81,4.879,1.624,6.384-0.8
			c1.529-2.462,0.896-4.253-1.886-6.06c-1.548-1.004-2.318-1.514-3.852-2.549c-1.832,2.722-2.749,4.083-4.581,6.805
			C172.69,515.904,173.478,516.423,175.058,517.449z M167.869,529.417c3.199,2.068,5.535,1.549,7.081-0.954
			c1.663-2.693,0.694-4.949-2.397-6.954c-1.644-1.063-2.462-1.604-4.09-2.704c-2.051,3.047-3.076,4.57-5.127,7.618
			C165.14,527.641,166.046,528.238,167.869,529.417z"/>
		<path fill="#555555" stroke="#555555" stroke-miterlimit="10" d="M193.474,550.033c-2.67-1.316-3.999-1.993-6.641-3.383
			c10.204-9.604,15.091-14.577,24.408-24.817c2.438,1.16,3.664,1.721,6.126,2.812c-1.709,13.735-2.311,20.679-2.998,34.656
			c-2.96-1.172-4.435-1.776-7.368-3.036c0.331-2.886,0.508-4.327,0.878-7.202c-3.805-1.664-5.695-2.533-9.448-4.35
			C196.466,546.854,195.475,547.918,193.474,550.033z M209.076,540.185c0.525-3.576,0.837-6.129,1.517-9.201
			c-0.035-0.018-0.053-0.024-0.088-0.04c-1.868,2.573-3.609,4.367-6.033,7.068c-0.936,1.059-1.405,1.586-2.35,2.639
			c2.568,1.224,3.859,1.815,6.452,2.971C208.771,542.244,208.871,541.558,209.076,540.185z"/>
		<path fill="#555555" stroke="#555555" stroke-miterlimit="10" d="M255.484,538.106c3.955,1.031,5.941,1.507,9.927,2.377
			c6.095,1.33,11.114,4.607,9.734,12.69c-1.463,8.568-8.253,9.628-14.432,8.277c-1.39-0.305-2.084-0.461-3.472-0.783
			c-1.045,4.479-1.567,6.719-2.613,11.198c-3.012-0.699-4.515-1.071-7.51-1.854C250.465,557.251,252.138,550.87,255.484,538.106z
			 M262.052,556.269c3.74,0.814,5.591-0.568,6.3-4.153c0.684-3.456-0.423-5.284-4.108-6.088c-1.364-0.3-2.044-0.451-3.406-0.77
			c-0.952,4.081-1.429,6.121-2.381,10.202C259.893,555.793,260.613,555.955,262.052,556.269z"/>
		<path fill="#555555" stroke="#555555" stroke-miterlimit="10" d="M290.007,544.591c2.741,0.319,4.113,0.46,6.86,0.704
			c-0.979,10.921-1.467,16.381-2.443,27.301c5.572,0.495,8.363,0.674,13.949,0.893c-0.087,2.227-0.128,3.343-0.217,5.567
			c-8.812-0.343-13.217-0.686-21.987-1.707C287.705,564.245,288.471,557.694,290.007,544.591z"/>
		<path fill="#555555" stroke="#555555" stroke-miterlimit="10" d="M327.531,579.149c-2.912,0.084-4.368,0.109-7.281,0.119
			c4.404-13.26,6.35-19.938,9.715-33.341c2.645-0.109,3.967-0.188,6.607-0.368c4.836,12.945,7.511,19.372,13.367,32.062
			c-3.123,0.337-4.686,0.479-7.813,0.731c-1.042-2.706-1.551-4.062-2.554-6.776c-4.073,0.297-6.114,0.409-10.195,0.557
			C328.659,574.945,328.291,576.345,327.531,579.149z M336.521,563.168c-1.188-3.409-2.09-5.812-2.914-8.847
			c-0.037,0.002-0.056,0.004-0.094,0.006c-0.437,3.146-1.121,5.546-1.979,9.062c-0.325,1.371-0.49,2.061-0.825,3.431
			c2.785-0.116,4.177-0.191,6.959-0.379C337.204,565.133,336.977,564.479,336.521,563.168z"/>
		<path fill="#555555" stroke="#555555" stroke-miterlimit="10" d="M365.585,562.392c-5.392-7.214-7.946-10.885-12.761-18.335
			c2.791-0.373,4.186-0.58,6.967-1.029c3.263,5.104,4.957,7.633,8.474,12.636c0.039-0.007,0.06-0.011,0.099-0.02
			c1.463-5.934,2.126-8.901,3.317-14.843c2.638-0.559,3.95-0.854,6.573-1.486c-1.827,8.674-2.896,13.014-5.342,21.668
			c1.022,5.088,1.538,7.63,2.562,12.716c-3.065,0.613-4.604,0.901-7.685,1.434C366.906,570.035,366.466,567.487,365.585,562.392z"/>
		<path fill="#555555" stroke="#555555" stroke-miterlimit="10" d="M391.054,553.039c-3.163-11.383,1.311-18.091,8.238-20.416
			c6.889-2.312,14.553,0.326,18.912,11.307c4.357,10.981-0.167,18.521-7.996,21.146
			C402.333,567.716,394.217,564.422,391.054,553.039z M411.205,546.591c-2.507-6.868-6.033-9.827-10.065-8.475
			c-4.078,1.368-5.088,5.849-2.936,12.836c2.152,6.986,5.771,10.288,10.214,8.798C412.81,558.276,413.712,553.458,411.205,546.591z"
			/>
		<path fill="#555555" stroke="#555555" stroke-miterlimit="10" d="M424.569,523.269c6.982-3.217,10.43-4.968,17.199-8.747
			c1.111,1.994,1.667,2.99,2.778,4.984c-4.395,2.452-6.618,3.623-11.103,5.844c1.445,2.926,2.173,4.385,3.621,7.31
			c3.312-1.643,4.955-2.49,8.223-4.253c1.022,1.897,1.535,2.849,2.56,4.748c-3.332,1.799-5.012,2.668-8.392,4.342
			c2.438,4.923,3.658,7.386,6.096,12.308c-2.854,1.414-4.293,2.101-7.18,3.431C432.851,541.246,430.092,535.253,424.569,523.269z"/>
		<path fill="#555555" stroke="#555555" stroke-miterlimit="10" d="M452.946,507.897c6.609-4.154,9.854-6.373,16.196-11.092
			c1.359,1.833,2.041,2.752,3.4,4.585c-4.116,3.062-6.203,4.533-10.433,7.362c1.811,2.714,2.716,4.071,4.525,6.785
			c3.124-2.09,4.674-3.167,7.738-5.379c1.261,1.751,1.888,2.625,3.147,4.376c-3.128,2.258-4.705,3.354-7.895,5.488
			c3.049,4.566,4.574,6.854,7.623,11.422c-2.694,1.802-4.048,2.683-6.781,4.398C463.463,524.669,459.957,519.076,452.946,507.897z"
			/>
		<path fill="#555555" stroke="#555555" stroke-miterlimit="10" d="M494.085,509.981c1.316-2.497,1.958-3.755,3.205-6.271
			c3.128,1.082,6.751,1.083,9.621-1.518c2.553-2.312,2.847-4.688,1.32-6.312c-1.861-1.979-5.073-0.684-8.664,0.75
			c-4.973,1.985-10.979,4.253-15.191-0.88c-3.48-4.237-2.117-10.101,2.719-14.459c4.551-4.102,9.399-4.454,13.95-3.067
			c-0.879,2.479-1.334,3.713-2.278,6.182c-3.031-0.933-5.78-0.916-8.055,1.129c-1.942,1.749-2.119,3.784-0.89,5.196
			c1.726,1.982,4.704,1.101,8.055-0.199c4.996-1.938,11.171-5.115,15.889-0.376c3.521,3.537,3.312,10.109-3.231,16.039
			C504.64,511.532,499.053,511.915,494.085,509.981z"/>
	</g>
</g>
<g>
	<path fill="#BBBBBB" d="M316.85,19C478.906,19,610.28,152.867,610.28,318S478.906,617,316.85,617
		C154.792,617,23.419,483.133,23.419,318S154.793,19,316.85,19 M316.85,4c-41.667,0-82.093,8.318-120.154,24.722
		c-36.736,15.833-69.722,38.492-98.039,67.347c-28.298,28.835-50.515,62.412-66.033,99.797C16.563,234.56,8.419,275.651,8.419,318
		c0,42.349,8.144,83.44,24.205,122.135c15.518,37.385,37.735,70.961,66.033,99.797c28.317,28.854,61.303,51.516,98.039,67.349
		c38.062,16.402,78.487,24.722,120.154,24.722c41.666,0,82.092-8.317,120.152-24.722c36.736-15.833,69.722-38.492,98.039-67.349
		c28.298-28.836,50.515-62.412,66.033-99.797c16.062-38.692,24.205-79.786,24.205-122.135c0-42.349-8.146-83.44-24.205-122.135
		c-15.521-37.385-37.735-70.961-66.033-99.797c-28.317-28.854-61.303-51.513-98.039-67.347C398.94,12.318,358.516,4,316.85,4
		L316.85,4z"/>
</g>
</svg>
