<?xml version="1.0" encoding="utf-8"?>
<!-- Generator: Adobe Illustrator 15.1.0, SVG Export Plug-In . SVG Version: 6.00 Build 0)  -->
<!DOCTYPE svg PUBLIC "-//W3C//DTD SVG 1.1//EN" "http://www.w3.org/Graphics/SVG/1.1/DTD/svg11.dtd">
<svg version="1.1" id="Layer_1" xmlns="http://www.w3.org/2000/svg" xmlns:xlink="http://www.w3.org/1999/xlink" x="0px" y="0px"
	 width="800px" height="600px" viewBox="0 0 800 600" enable-background="new 0 0 800 600" xml:space="preserve">
<title>Layer 1</title>
<g id="zWTlbn_1_">
</g>
<text transform="matrix(1 0 0 1 201.1284 464.5)"><tspan x="0" y="0" fill="#555555" font-family="'HelveticaNeue-Medium'" font-size="51"> NBA PLAYOFFS</tspan><tspan x="-9.205" y="72" fill="#555555" font-family="'HelveticaNeue-Medium'" font-size="72">PREDICTOR</tspan></text>
<g>
	<g id="Ndl7qU.tif">
		<g>
			<path fill-rule="evenodd" clip-rule="evenodd" fill="#555555" d="M389.395,20.5c7.07,0,14.141,0,21.211,0
				C511.066,33.639,567.773,90.521,581,190.895c0,7.07,0,14.141,0,21.211C567.711,312.646,510.852,369.624,409.898,382.5
				c-6.6,0-13.197,0-19.797,0C289.138,369.634,232.268,312.667,219,212.105c0-7.07,0-14.141,0-21.211
				c3.085-49.905,25.98-89.688,53.734-117.367C301.476,44.863,339.725,24.146,389.395,20.5z M286.875,78.477
				c21.884,31.143,39.249,66.806,43.129,115.953c20.739,0,41.479,0,62.219,0c0-53.498,0-106.998,0-160.496
				C345.206,36.881,312.226,53.864,286.875,78.477z M405.656,194.43c20.975,0,41.949,0,62.926,0
				c3.758-49.739,21.279-85.719,43.836-116.66c-25.625-24.339-58.57-41.357-106.055-43.836
				C404.713,86.018,406.127,141.167,405.656,194.43z M521.609,86.961c-19.754,29.268-36.713,61.329-39.594,107.469
				c28.516,0,57.033,0,85.551,0C564.783,146.07,546.994,112.717,521.609,86.961z M276.977,87.668
				c-24,26.435-42.035,58.835-44.543,106.762c27.812-0.468,57.501,0.938,84.137-0.707
				C313.038,148.704,297.02,116.175,276.977,87.668z M233.141,207.156c0.433,47.174,19.429,81.912,43.836,107.469
				c19.694-29.326,37.231-60.81,39.594-107.469C288.76,207.156,260.95,207.156,233.141,207.156z M329.297,209.277
				c-2.627,50.4-21.401,84.654-43.836,115.246c27.17,23.265,58.844,42.025,106.762,44.543c0-53.971,0-107.94,0-161.91
				c-20.504,0-41.008,0-61.512,0C329.822,207.446,329.266,208.068,329.297,209.277z M405.656,369.066
				c48.342-2.33,81.553-19.788,107.469-44.543c-23.361-30.607-41.471-66.47-44.543-117.367c-20.74,0-41.479,0-62.219,0
				C404.713,259.712,406.127,315.333,405.656,369.066z M482.723,207.156c0.354,46.076,19.568,79.416,39.594,108.176
				c25.143-25.998,42.908-59.376,45.25-108.176C539.285,207.156,511.004,207.156,482.723,207.156z"/>
			<path fill-rule="evenodd" clip-rule="evenodd" fill="#FFFFFF" d="M392.223,33.934c0,53.499,0,106.998,0,160.496
				c-20.74,0-41.479,0-62.219,0c-3.88-49.147-21.245-84.811-43.129-115.953C312.226,53.864,345.206,36.881,392.223,33.934z"/>
			<path fill-rule="evenodd" clip-rule="evenodd" fill="#FFFFFF" d="M406.363,33.934c47.484,2.479,80.43,19.497,106.055,43.836
				c-22.557,30.941-40.078,66.921-43.836,116.66c-20.977,0-41.951,0-62.926,0C406.127,141.167,404.713,86.018,406.363,33.934z"/>
			<path fill-rule="evenodd" clip-rule="evenodd" fill="#FFFFFF" d="M567.566,194.43c-28.518,0-57.035,0-85.551,0
				c2.881-46.14,19.84-78.201,39.594-107.469C546.994,112.717,564.783,146.07,567.566,194.43z"/>
			<path fill-rule="evenodd" clip-rule="evenodd" fill="#FFFFFF" d="M316.57,193.723c-26.636,1.646-56.324,0.239-84.137,0.707
				c2.508-47.927,20.543-80.327,44.543-106.762C297.02,116.175,313.038,148.704,316.57,193.723z"/>
			<path fill-rule="evenodd" clip-rule="evenodd" fill="#FFFFFF" d="M316.57,207.156c-2.362,46.659-19.899,78.143-39.594,107.469
				c-24.407-25.557-43.403-60.295-43.836-107.469C260.95,207.156,288.76,207.156,316.57,207.156z"/>
			<path fill-rule="evenodd" clip-rule="evenodd" fill="#FFFFFF" d="M330.711,207.156c20.504,0,41.008,0,61.512,0
				c0,53.97,0,107.939,0,161.91c-47.918-2.518-79.592-21.278-106.762-44.543c22.435-30.592,41.209-64.846,43.836-115.246
				C329.266,208.068,329.822,207.446,330.711,207.156z"/>
			<path fill-rule="evenodd" clip-rule="evenodd" fill="#FFFFFF" d="M406.363,207.156c20.74,0,41.479,0,62.219,0
				c3.072,50.897,21.182,86.76,44.543,117.367c-25.916,24.755-59.127,42.213-107.469,44.543
				C406.127,315.333,404.713,259.712,406.363,207.156z"/>
			<path fill-rule="evenodd" clip-rule="evenodd" fill="#FFFFFF" d="M567.566,207.156c-2.342,48.8-20.107,82.178-45.25,108.176
				c-20.025-28.76-39.24-62.1-39.594-108.176C511.004,207.156,539.285,207.156,567.566,207.156z"/>
		</g>
	</g>
	<rect x="410" y="108.783" fill-rule="evenodd" clip-rule="evenodd" fill="#FFFFFF" width="124.5" height="66.021"/>
	<text transform="matrix(1 0 0 1 422.1055 156.6177)" fill="#0066CC" font-family="'HelveticaNeue-Medium'" font-size="48.5053">2015</text>
</g>
<rect x="214.5" y="574.5" fill-rule="evenodd" clip-rule="evenodd" fill="#0066CC" width="371" height="10"/>
</svg>
