<?xml version="1.0" encoding="utf-8"?>
<!-- Generator: Adobe Illustrator 15.1.0, SVG Export Plug-In . SVG Version: 6.00 Build 0)  -->
<!DOCTYPE svg PUBLIC "-//W3C//DTD SVG 1.1//EN" "http://www.w3.org/Graphics/SVG/1.1/DTD/svg11.dtd">
<svg version="1.1" id="Layer_1" xmlns="http://www.w3.org/2000/svg" xmlns:xlink="http://www.w3.org/1999/xlink" x="0px" y="0px"
	 width="636.279px" height="638px" viewBox="30.221 -3.5 636.279 638" enable-background="new 30.221 -3.5 636.279 638"
	 xml:space="preserve">
<g>
	<g id="Ndl7qU.tif">
		<g>
			<path fill-rule="evenodd" clip-rule="evenodd" fill="#555555" d="M334.914,67.04c8.965,0,17.929,0,26.895,0
				c127.376,16.257,199.276,86.655,216.046,210.875c0,8.749,0,17.5,0,26.249c-16.849,124.421-88.941,194.946-216.943,210.875
				c-8.367,0-16.732,0-25.101,0c-128.015-15.917-200.121-86.429-216.944-210.875c0-8.749,0-17.5,0-26.249
				c3.912-61.759,32.941-110.992,68.132-145.251C223.439,97.192,271.937,71.555,334.914,67.04z M204.927,138.79
				c27.747,38.539,49.765,82.676,54.685,143.5c26.296,0,52.592,0,78.889,0c0-66.21,0-132.415,0-198.625
				C278.887,87.314,237.07,108.332,204.927,138.79z M355.533,282.29c26.594,0,53.188,0,79.784,0
				c4.765-61.552,26.981-106.083,55.581-144.375c-32.49-30.124-74.263-51.183-134.469-54.25
				C354.337,148.125,356.13,216.375,355.533,282.29z M502.553,149.29c-25.047,36.224-46.55,75.898-50.202,133
				c36.155,0,72.313,0,108.472,0C557.294,222.438,534.738,181.167,502.553,149.29z M192.376,150.164
				c-30.43,32.718-53.297,72.813-56.477,132.125c35.265-0.582,72.907,1.159,106.679-0.875
				C238.1,225.699,217.789,185.441,192.376,150.164z M136.796,298.04c0.549,58.375,24.635,101.375,55.58,133
				c24.972-36.294,47.207-75.256,50.202-133C207.316,298.04,172.057,298.04,136.796,298.04z M258.715,300.664
				c-3.331,62.381-27.136,104.76-55.581,142.624c34.449,28.796,74.61,52.013,135.366,55.128c0-66.799,0-133.58,0-200.376
				c-25.997,0-51.995,0-77.992,0C259.381,298.4,258.675,299.166,258.715,300.664z M355.533,498.416
				c61.293-2.892,103.402-24.491,136.262-55.128c-29.62-37.884-52.582-82.26-56.478-145.249c-26.297,0-52.591,0-78.888,0
				C354.337,363.086,356.13,431.917,355.533,498.416z M453.247,298.04c0.448,57.018,24.811,98.289,50.202,133.875
				c31.878-32.182,54.403-73.482,57.373-133.875C524.964,298.04,489.105,298.04,453.247,298.04z"/>
			<path fill-rule="evenodd" clip-rule="evenodd" fill="#FFFFFF" d="M338.5,83.664c0,66.211,0,132.415,0,198.625
				c-26.297,0-52.593,0-78.889,0c-4.92-60.824-26.938-104.961-54.685-143.5C237.07,108.332,278.887,87.314,338.5,83.664z"/>
			<path fill-rule="evenodd" clip-rule="evenodd" fill="#FFFFFF" d="M356.43,83.664c60.206,3.067,101.979,24.127,134.469,54.25
				c-28.6,38.292-50.816,82.823-55.581,144.375c-26.597,0-53.19,0-79.784,0C356.13,216.375,354.337,148.125,356.43,83.664z"/>
			<path fill-rule="evenodd" clip-rule="evenodd" fill="#FFFFFF" d="M560.822,282.29c-36.158,0-72.316,0-108.472,0
				c3.652-57.102,25.155-96.776,50.202-133C534.738,181.167,557.294,222.438,560.822,282.29z"/>
			<path fill-rule="evenodd" clip-rule="evenodd" fill="#FFFFFF" d="M242.578,281.415c-33.771,2.034-71.414,0.292-106.679,0.875
				c3.18-59.312,26.047-99.407,56.477-132.125C217.789,185.441,238.1,225.699,242.578,281.415z"/>
			<path fill-rule="evenodd" clip-rule="evenodd" fill="#FFFFFF" d="M242.578,298.04c-2.995,57.745-25.23,96.707-50.202,133
				c-30.945-31.625-55.031-74.626-55.58-133C172.057,298.04,207.316,298.04,242.578,298.04z"/>
			<path fill-rule="evenodd" clip-rule="evenodd" fill="#FFFFFF" d="M260.508,298.04c25.997,0,51.995,0,77.992,0
				c0,66.796,0,133.578,0,200.376c-60.756-3.115-100.917-26.332-135.366-55.128c28.445-37.864,52.25-80.243,55.581-142.624
				C258.675,299.166,259.381,298.4,260.508,298.04z"/>
			<path fill-rule="evenodd" clip-rule="evenodd" fill="#FFFFFF" d="M356.43,298.04c26.297,0,52.591,0,78.888,0
				c3.896,62.989,26.857,107.365,56.478,145.249c-32.859,30.637-74.969,52.236-136.262,55.128
				C356.13,431.917,354.337,363.086,356.43,298.04z"/>
			<path fill-rule="evenodd" clip-rule="evenodd" fill="#FFFFFF" d="M560.822,298.04c-2.97,60.393-25.495,101.694-57.373,133.875
				c-25.392-35.587-49.754-76.857-50.202-133.875C489.105,298.04,524.964,298.04,560.822,298.04z"/>
		</g>
	</g>
	<rect x="361.041" y="176.293" fill-rule="evenodd" clip-rule="evenodd" fill="#FFFFFF" width="157.855" height="81.708"/>
	<g>
		<path fill="#0066CC" stroke="#0066CC" stroke-width="2" stroke-miterlimit="10" d="M408.184,235.494h-29.397
			c0.042-3.483,0.901-6.524,2.583-9.126c1.682-2.603,3.978-4.861,6.89-6.784c1.395-0.995,2.848-1.97,4.366-2.909
			c1.515-0.938,2.909-1.951,4.182-3.032c1.271-1.082,2.315-2.249,3.136-3.512c0.819-1.262,1.251-2.708,1.292-4.353
			c0-0.756-0.091-1.569-0.276-2.43c-0.184-0.86-0.543-1.656-1.075-2.401c-0.535-0.738-1.273-1.358-2.214-1.857
			c-0.946-0.505-2.175-0.754-3.692-0.754c-1.394,0-2.551,0.269-3.475,0.812c-0.921,0.536-1.659,1.283-2.214,2.22
			c-0.552,0.938-0.963,2.048-1.229,3.33c-0.267,1.282-0.421,2.661-0.463,4.143h-7.011c0-2.316,0.317-4.47,0.954-6.45
			c0.636-1.981,1.59-3.693,2.86-5.136c1.27-1.437,2.817-2.565,4.643-3.388c1.822-0.822,3.945-1.233,6.364-1.233
			c2.625,0,4.819,0.42,6.582,1.262c1.761,0.841,3.188,1.903,4.274,3.177c1.085,1.283,1.854,2.678,2.306,4.179
			c0.451,1.495,0.676,2.929,0.676,4.288c0,1.683-0.267,3.205-0.8,4.562c-0.532,1.36-1.25,2.612-2.151,3.75
			c-0.901,1.14-1.927,2.191-3.076,3.156c-1.146,0.957-2.335,1.856-3.566,2.699c-1.23,0.841-2.458,1.638-3.689,2.401
			c-1.231,0.757-2.367,1.522-3.412,2.278c-1.048,0.765-1.959,1.551-2.739,2.372c-0.777,0.823-1.312,1.694-1.597,2.612h20.97V235.494
			z"/>
		<path fill="#0066CC" stroke="#0066CC" stroke-width="2" stroke-miterlimit="10" d="M427.68,192.633
			c3.077,0,5.585,0.689,7.534,2.074c1.946,1.379,3.465,3.14,4.552,5.282c1.084,2.143,1.822,4.489,2.214,7.051
			c0.389,2.564,0.585,5.042,0.585,7.444s-0.196,4.88-0.585,7.443c-0.392,2.564-1.13,4.917-2.214,7.052
			c-1.087,2.143-2.605,3.903-4.552,5.281c-1.949,1.386-4.457,2.075-7.534,2.075c-3.075,0-5.586-0.689-7.532-2.075
			c-1.949-1.378-3.468-3.139-4.553-5.281c-1.087-2.136-1.824-4.488-2.213-7.052c-0.392-2.562-0.585-5.042-0.585-7.443
			s0.193-4.879,0.585-7.444c0.389-2.562,1.126-4.908,2.213-7.051c1.085-2.142,2.604-3.903,4.553-5.282
			C422.094,193.323,424.604,192.633,427.68,192.633z M427.68,230.634c1.517,0,2.789-0.43,3.813-1.292
			c1.023-0.861,1.833-2.019,2.431-3.482c0.592-1.464,1.012-3.169,1.261-5.13c0.244-1.959,0.368-4.045,0.368-6.246
			s-0.124-4.272-0.368-6.21c-0.249-1.942-0.669-3.654-1.261-5.137c-0.598-1.482-1.407-2.649-2.431-3.511
			c-1.024-0.86-2.297-1.291-3.813-1.291c-1.56,0-2.84,0.431-3.843,1.291c-1.005,0.862-1.806,2.029-2.399,3.511
			c-0.595,1.482-1.016,3.194-1.261,5.137c-0.245,1.938-0.369,4.009-0.369,6.21s0.124,4.287,0.369,6.246
			c0.245,1.961,0.666,3.666,1.261,5.13c0.594,1.463,1.395,2.621,2.399,3.482C424.84,230.204,426.12,230.634,427.68,230.634z"/>
		<path fill="#0066CC" stroke="#0066CC" stroke-width="2" stroke-miterlimit="10" d="M448.037,200.439
			c1.476,0,2.909-0.125,4.303-0.364c1.396-0.239,2.655-0.639,3.784-1.196c1.128-0.563,2.091-1.28,2.891-2.162
			c0.8-0.88,1.321-1.961,1.567-3.243h5.72v42.02h-7.686v-29.652h-10.579V200.439z"/>
		<path fill="#0066CC" stroke="#0066CC" stroke-width="2" stroke-miterlimit="10" d="M486.535,193.475h22.266v6.123h-17.038
			l-2.214,10.687l0.123,0.115c0.943-1.034,2.143-1.827,3.599-2.364c1.453-0.545,2.9-0.813,4.337-0.813
			c2.129,0,4.036,0.347,5.718,1.052c1.682,0.699,3.096,1.675,4.244,2.938c1.147,1.263,2.019,2.756,2.613,4.477
			c0.594,1.714,0.892,3.579,0.892,5.579c0,1.683-0.275,3.415-0.83,5.194c-0.553,1.78-1.437,3.397-2.646,4.861
			c-1.207,1.463-2.756,2.66-4.643,3.598c-1.885,0.945-4.141,1.415-6.766,1.415c-2.091,0-4.026-0.268-5.81-0.813
			c-1.785-0.537-3.353-1.349-4.705-2.43c-1.355-1.082-2.43-2.411-3.229-3.991c-0.801-1.578-1.242-3.432-1.323-5.556h7.011
			c0.206,2.285,1.006,4.036,2.399,5.255c1.392,1.221,3.237,1.833,5.535,1.833c1.476,0,2.727-0.24,3.751-0.719
			c1.023-0.486,1.855-1.146,2.492-1.982c0.633-0.84,1.085-1.823,1.353-2.944c0.264-1.119,0.398-2.323,0.398-3.598
			c0-1.166-0.164-2.276-0.49-3.337c-0.329-1.054-0.822-1.99-1.477-2.786c-0.656-0.803-1.509-1.444-2.554-1.922
			c-1.044-0.479-2.265-0.718-3.66-0.718c-1.475,0-2.859,0.268-4.149,0.805c-1.294,0.544-2.225,1.551-2.799,3.032h-7.011
			L486.535,193.475z"/>
	</g>
</g>
<g>
	<path fill="#FFFFFF" d="M598.5,460.5c-199.483-41.312-304.517-41.312-504,0c0-62.4,0-93.6,0-156
		c199.483,41.312,304.517,41.309,504,0C598.5,366.9,598.5,398.1,598.5,460.5z"/>
</g>
<title>Layer 1</title>
<g id="zWTlbn_1_">
</g>
<rect x="180.819" y="577.376" fill-rule="evenodd" clip-rule="evenodd" fill="#FFFFFF" width="335.083" height="10"/>
<g>
	<g>
		<g>
			<path fill="#555555" d="M98.704,452.384c0-55.306,0-82.961,0-138.268c9.555,2.237,14.337,3.305,23.905,5.329
				c10.035,2.123,26.886,10.52,26.886,45.128c0,25.819-9.875,41.285-27.06,42.651c-0.702,0.056-1.053,0.083-1.755,0.14
				c0,16.04,0,24.062,0,40.103C111.885,449.344,107.489,450.326,98.704,452.384z M122.783,375.358
				c2.643,0.069,5.14,0.133,5.14-11.531c0-10.903-2.191-11.121-5.225-11.432c-0.807-0.083-1.21-0.126-2.017-0.209
				c0,9.246,0,13.872,0,23.118C121.521,375.327,121.941,375.336,122.783,375.358z"/>
			<path fill="#FFFFFF" d="M122.609,326.108C134.493,328.36,145,337.892,145,364.303c0,27.991-11.462,35.619-22.563,36.257
				c-2.499,0.144-3.748,0.217-6.245,0.364c0,16.281,0.001,24.422,0.001,40.703c-5.203,1.015-7.804,1.536-13.003,2.606
				c0-48.785,0-73.18,0-121.966C110.953,323.866,114.837,324.636,122.609,326.108 M116.192,381.988
				c2.636,0.011,3.954,0.018,6.591,0.028c6.853,0.028,9.631-5.642,9.631-17.903c0-11.81-2.691-17.503-9.716-18.377
				c-2.603-0.324-3.904-0.489-6.506-0.822C116.192,359.744,116.192,367.158,116.192,381.988 M122.609,312.786
				c-7.772-1.816-11.656-2.767-19.42-4.738c-3.588-0.911-5.381-1.372-8.968-2.316c0,5.863,0,8.793,0,14.656
				c0,50.291,0,75.436,0,125.726c0,5.863,0,8.794,0,14.657c3.586-0.944,5.379-1.408,8.968-2.319c5.199-1.32,7.8-1.964,13.003-3.215
				c3.591-0.863,5.386-1.284,8.979-2.114c0-5.284,0-7.927,0-13.211c0-10.567,0-15.852,0-26.419
				c7.538-1.445,13.825-5.547,18.712-11.896c6.707-8.714,10.11-20.805,10.11-36.756c0-15.357-3.241-27.44-9.629-36.727
				C138.91,320.186,131.588,314.885,122.609,312.786L122.609,312.786z"/>
		</g>
		<g>
			<path fill="#555555" d="M188.4,435.158c-3.742-11.285-5.612-17.076-9.353-28.998c0,12.177,0,18.267,0,30.443
				c-8.785,1.396-13.176,2.138-21.952,3.712c0-45.651,0-68.479,0-114.131c9.828,1.762,14.744,2.59,24.582,4.128
				c12.013,1.879,26.347,9.478,26.347,36.526c0,11.212-3.451,20.209-9.6,25.812c5.306,16.28,7.959,24.108,13.268,39.265
				C202.371,433.114,197.712,433.76,188.4,435.158z M181.241,375.15c2.765,0.066,5.154,0.121,5.154-8.959
				c0-4.602-0.781-6.385-1.247-7.041c-0.618-0.872-1.934-1.392-3.908-1.541c-0.878-0.066-1.315-0.101-2.193-0.168
				c0,7.062,0,10.594,0,17.656C179.925,375.119,180.363,375.129,181.241,375.15z"/>
			<path fill="#FFFFFF" d="M181.676,335.841c13.568,1.9,21.841,10.807,21.841,30.794c0,12.161-4.353,20.207-10.618,23.934
				c4.908,15.327,7.362,22.712,12.271,37.031c-5.467,0.659-8.2,1.005-13.664,1.726c-4.35-13.073-6.524-19.806-10.873-33.732
				c-2.436,0.089-3.653,0.136-6.088,0.228c0,14.345,0,21.518,0,35.862c-5.183,0.757-7.772,1.147-12.952,1.96
				c0-40.313-0.001-60.47-0.001-100.784C169.623,334.117,173.64,334.715,181.676,335.841 M174.546,380.636
				c2.678,0.021,4.015,0.03,6.694,0.051c6.437,0.049,9.659-3.795,9.659-14.274c0-9.979-3.222-13.742-9.658-14.336
				c-2.679-0.247-4.017-0.375-6.695-0.632C174.546,363.12,174.546,368.96,174.546,380.636 M181.676,324.785
				c-8.037-1.388-12.053-2.124-20.083-3.677c-3.599-0.696-5.397-1.05-8.995-1.779c0,4.835,0,7.25,0,12.085
				c0,41.47,0,62.203,0,103.672c0,4.835-0.001,7.254-0.001,12.089c3.597-0.729,5.396-1.085,8.995-1.781
				c5.18-1.002,7.771-1.486,12.953-2.419c3.601-0.648,5.401-0.963,9.003-1.578c0-2.244,0-3.367,0-5.611
				c0.699,2.136,1.048,3.196,1.747,5.311c2.484-0.42,3.726-0.623,6.211-1.027c5.464-0.889,8.198-1.312,13.665-2.125
				c5.215-0.775,7.822-1.146,13.04-1.852c-1.844-5.159-2.767-7.771-4.61-13.053c-3.942-11.292-5.912-17.075-9.853-28.975
				c5.656-6.622,8.782-15.886,8.782-27.03c0-12.123-2.816-21.716-8.369-29.004C198.793,330.984,191.226,326.435,181.676,324.785
				L181.676,324.785z"/>
		</g>
		<g>
			<path fill="#555555" d="M217.38,431.198c0-38.356,0-57.535,0-95.894c18.376,2.266,27.571,3.204,45.968,4.69
				c0,8.975,0.001,13.458,0.001,22.433c-9.486-0.369-14.229-0.578-23.709-1.047c0,3.552,0,5.327,0,8.878
				c6.832,0.2,10.248,0.293,17.082,0.463c0,8.793,0,13.188,0,21.98c-6.834,0.128-10.251,0.2-17.083,0.352c0,4.958,0,7.438,0,12.396
				c9.969-0.5,14.955-0.723,24.93-1.111c0,8.828,0,13.244,0,22.072C245.683,427.916,236.243,428.873,217.38,431.198z"/>
			<path fill="#FFFFFF" d="M258.836,344.177c0,5.407,0,8.108,0,13.516c-9.485-0.472-14.228-0.736-23.708-1.33
				c0,7.423,0,11.133,0,18.556c6.831,0.133,10.247,0.192,17.081,0.306c0,5.18,0.001,7.771,0.001,12.951
				c-6.834,0.069-10.251,0.108-17.082,0.189c0,8.844,0,13.267,0,22.11c9.968-0.632,14.954-0.916,24.928-1.412
				c0,5.269,0,7.903,0,13.171c-15.274,1.147-22.909,1.84-38.168,3.468c0-33.96,0-50.94,0-84.902
				C236.66,342.374,244.051,343.052,258.836,344.177 M267.862,335.868c-3.61-0.306-5.416-0.465-9.026-0.804
				c-14.785-1.388-22.176-2.222-36.947-4.164c-3.606-0.475-5.411-0.719-9.017-1.227c0,4.053,0,6.078,0,10.131
				c0,34.758,0,52.137,0,86.893c0,4.052,0,6.078,0,10.13c3.605-0.508,5.409-0.752,9.016-1.227
				c15.259-2.007,22.895-2.861,38.169-4.275c3.61-0.334,5.415-0.495,9.025-0.796c0-3.576,0-5.363,0-8.939
				c0-5.181-0.001-7.772-0.001-12.953c0-3.576,0-5.362,0-8.938c-3.611,0.104-5.415,0.161-9.025,0.277
				c-6.364,0.205-9.544,0.313-15.905,0.555c0-1.151-0.001-1.728-0.001-2.879c3.224-0.102,4.837-0.149,8.062-0.243
				c3.609-0.105,5.413-0.156,9.023-0.252c0-3.628,0.001-5.439,0.001-9.067c0-5.088,0-7.634,0-12.722
				c0-3.395-0.001-5.093-0.001-8.487c2.65,0.083,3.977,0.124,6.628,0.2c0-3.584,0-5.375,0-8.959c0-5.316,0-7.977,0-13.293
				C267.862,341.244,267.862,339.452,267.862,335.868L267.862,335.868z"/>
		</g>
		<g>
			<path fill="#555555" d="M271.934,425.849c0-34.077,0-51.117,0-85.196c8.572,0.625,12.858,0.896,21.433,1.352
				c22.936,1.22,34.091,14.29,34.091,41.055c0,26.647-11.473,40.236-34.09,41.438C284.793,424.953,280.505,425.224,271.934,425.849z
				 M294.588,403.174c6.191-0.156,10.574-1.667,10.574-20.119c0-17.997-4.419-19.471-10.663-19.628
				c-0.112-0.003-0.169-0.005-0.281-0.008c0,15.907,0,23.858,0,39.765C294.366,403.18,294.44,403.178,294.588,403.174z"/>
			<path fill="#FFFFFF" d="M293.366,346.311c17.356,0.826,29.574,9.006,29.574,36.748c0,27.935-12.478,36.317-29.574,37.131
				c-6.769,0.322-10.152,0.508-16.919,0.924c0-30.29-0.001-45.435-0.001-75.727C283.213,345.804,286.598,345.988,293.366,346.311
				 M289.703,407.632c1.954-0.065,2.931-0.097,4.885-0.156c11.166-0.342,15.089-6.874,15.089-24.421
				c0-16.96-3.924-23.586-15.178-23.93c-1.918-0.059-2.878-0.089-4.796-0.152C289.703,378.437,289.703,388.169,289.703,407.632
				 M293.366,337.696c-6.769-0.397-10.153-0.625-16.92-1.139c-3.611-0.274-5.415-0.419-9.025-0.727c0,3.587-0.001,5.379-0.001,8.966
				c0,30.763,0.001,46.146,0.001,76.906c0,3.586,0,5.381,0,8.967c3.61-0.307,5.416-0.452,9.027-0.727
				c6.767-0.514,10.151-0.741,16.919-1.139c12-0.704,21.413-4.598,27.976-11.66c7.154-7.698,10.631-18.774,10.631-34.086
				c0-15.255-3.453-26.25-10.555-33.84C314.9,342.252,305.461,338.406,293.366,337.696L293.366,337.696z M298.734,397.171
				c0-11.104,0-16.653,0-27.757c0.914,1.714,1.913,5.451,1.913,13.641C300.646,391.508,299.652,395.385,298.734,397.171
				L298.734,397.171z"/>
		</g>
		<g>
			<path fill="#555555" d="M335.786,423.067c0-31.853,0-47.778,0-79.634c8.919,0.127,13.378,0.144,22.297,0.088
				c0,31.784,0,47.678,0,79.46C349.164,422.926,344.705,422.94,335.786,423.067z"/>
			<path fill="#FFFFFF" d="M353.566,347.688c0,28.452,0,42.677,0,71.127c-5.306-0.01-7.958-0.001-13.264,0.047
				c0-28.488,0-42.731,0-71.221C345.608,347.688,348.261,347.697,353.566,347.688 M362.6,339.331
				c-3.613,0.042-5.42,0.054-9.033,0.062c-5.306,0.013-7.958,0-13.264-0.059c-3.613-0.04-5.42-0.067-9.033-0.141
				c0,3.332,0,4.997,0,8.329c0,28.582,0,42.873,0,71.453c0,3.332,0,5,0,8.332c3.613-0.073,5.42-0.103,9.034-0.143
				c5.306-0.059,7.958-0.071,13.263-0.059c3.613,0.009,5.42,0.021,9.033,0.062c0-3.321,0-4.983,0-8.305
				c0-28.49-0.001-42.736-0.001-71.229C362.6,344.314,362.6,342.653,362.6,339.331L362.6,339.331z"/>
		</g>
		<g>
			<path fill="#555555" d="M395.62,425.14c-10.939-0.459-29.295-6.171-29.295-41.983c0-37.062,20.732-41.528,29.645-41.906
				c15.156-0.644,24.058,8.626,26.465,28.36c0.194,1.591,0.29,2.387,0.484,3.979c-8.495,1.862-12.742,2.749-21.24,4.484
				c-0.269-1.807-0.403-2.709-0.672-4.514c-1.657-11.139-4.047-11.064-5.475-11.035c-4.273,0.089-6.825,7.793-6.825,20.627
				c0,13.202,2.617,21.13,7.001,21.223c1.575,0.033,4.21,0.117,5.995-12.016c0.262-1.779,0.393-2.671,0.654-4.453
				c8.562,1.609,12.844,2.435,21.403,4.164c-0.259,1.666-0.389,2.497-0.647,4.16C419.979,416.353,410.73,425.774,395.62,425.14z"/>
			<path fill="#FFFFFF" d="M395.969,345.491c14.046-0.536,20.062,9.099,21.981,24.724c-4.989,1.106-7.483,1.644-12.474,2.7
				c-1.483-10.017-3.924-14.78-9.944-14.63c-7.677,0.192-11.342,8.909-11.342,24.867c0,16.351,3.753,25.264,11.518,25.462
				c6.018,0.153,8.81-4.297,10.467-15.616c4.989,0.975,7.485,1.471,12.475,2.492c-2.356,15.029-8.46,25.959-23.03,25.409
				c-14.832-0.56-24.778-11.969-24.778-37.745C370.842,357.668,381.225,346.054,395.969,345.491 M395.969,337.008
				c-10.542,0.492-19.626,5.239-25.578,13.446c-5.695,7.853-8.583,18.815-8.583,32.702c0,40.847,23.647,45.756,33.812,46.226
				c9.685,0.448,17.757-2.79,23.346-9.77c4.264-5.325,7.079-12.733,8.609-22.626c0.518-3.349,0.777-5.027,1.295-8.391
				c-3.404-0.676-5.106-1.007-8.511-1.663c-4.988-0.961-7.484-1.433-12.474-2.358c-3.531-0.655-5.297-0.977-8.828-1.618
				c3.31-0.655,4.964-0.986,8.272-1.655c4.99-1.009,7.483-1.521,12.473-2.569c3.233-0.679,4.851-1.02,8.083-1.718
				c-0.388-3.213-0.582-4.82-0.97-8.023c-1.22-10.068-3.901-17.547-8.198-22.823C413.366,339.596,405.501,336.562,395.969,337.008
				L395.969,337.008z M395.532,399.166c-0.918-1.869-2.31-6.297-2.31-16.014c0-8.686,1.147-13.005,2.015-15.037
				c0.387,1.205,0.851,3.107,1.295,6.082c0.537,3.592,0.807,5.391,1.344,8.992c0.254-0.05,0.38-0.075,0.634-0.125
				c-0.512,3.472-0.769,5.207-1.28,8.67C396.649,395.664,396.013,397.908,395.532,399.166L395.532,399.166z"/>
		</g>
		<g>
			<path fill="#555555" d="M439.947,426.568c0-25.668,0-38.501,0-64.17c-6.139,0.241-9.207,0.349-15.348,0.548
				c0-8.75,0-13.122,0-21.872c21.228-1.431,31.838-2.406,53.04-4.872c0,9.761,0,14.641,0,24.401
				c-6.167,0.345-9.252,0.509-15.421,0.812c0,26.881,0,40.32,0,67.199C453.312,427.705,448.858,427.295,439.947,426.568z"/>
			<path fill="#FFFFFF" d="M473.13,341.577c0,5.767,0,8.65,0,14.417c-6.167,0.405-9.252,0.594-15.422,0.947
				c0,26.612,0,39.92,0,66.532c-5.299-0.465-7.946-0.684-13.246-1.091c0-25.892,0-38.836,0-64.729
				c-6.138,0.308-9.209,0.449-15.349,0.707c0-5.266,0-7.9,0-13.166C446.729,344.066,455.532,343.345,473.13,341.577
				 M482.146,330.702c-3.606,0.479-5.409,0.711-9.017,1.157c-17.598,2.18-26.401,3.072-44.017,4.464
				c-3.611,0.285-5.417,0.42-9.028,0.672c0,3.498,0,5.249,0,8.747c0,5.19,0,7.786,0,12.977c0,3.498,0,5.246,0,8.744
				c3.611-0.086,5.417-0.131,9.028-0.229c2.528-0.068,3.792-0.104,6.32-0.178c0,21.868,0,32.801,0,54.668c0,3.589,0,5.384,0,8.973
				c3.61,0.309,5.418,0.471,9.028,0.812c5.3,0.502,7.947,0.771,13.246,1.344c3.608,0.391,5.412,0.596,9.021,1.019
				c0-3.828,0-5.745,0-9.573c0-23.329,0-34.994,0-58.324c2.561-0.103,3.842-0.155,6.401-0.264c3.607-0.152,5.41-0.232,9.017-0.396
				c0-3.975,0-5.961,0-9.936c0-5.896,0-8.846,0-14.742C482.146,336.662,482.146,334.677,482.146,330.702L482.146,330.702z"/>
		</g>
		<g>
			<path fill="#555555" d="M509.521,436.211c-14.545-2.193-30.101-16.939-30.101-52.961s15.556-50.769,30.101-52.962
				c14.503-2.187,29.982,10.261,29.982,52.962S524.024,438.397,509.521,436.211z M509.521,357.105
				c-4.861,0.362-7.765,10.126-7.765,26.145c0,16.08,2.976,26.281,7.765,26.645c4.736,0.359,7.679-9.843,7.679-26.645
				C517.2,366.512,514.329,356.748,509.521,357.105z"/>
			<path fill="#FFFFFF" d="M509.521,335.638c13.835-1.876,25.484,12.175,25.484,47.612s-11.649,49.489-25.484,47.613
				c-13.922-1.888-25.592-16.954-25.592-47.613S495.6,337.525,509.521,335.638 M509.521,415.244
				c7.918,0.722,12.18-10.926,12.18-31.994c0-21.066-4.262-32.204-12.18-31.494c-8.005,0.718-12.27,11.843-12.27,31.494
				C497.252,402.903,501.517,414.515,509.521,415.244 M509.521,324.939c-10.195,1.692-19.206,8.554-25.37,18.806
				c-6.13,10.195-9.239,23.247-9.239,39.507s3.109,29.309,9.239,39.504c6.164,10.252,15.175,17.112,25.37,18.805
				c10.16,1.687,19.136-2.451,25.277-12.714c6.108-10.206,9.203-25.845,9.203-45.597s-3.095-35.392-9.203-45.598
				C528.657,327.389,519.682,323.253,509.521,324.939L509.521,324.939z M509.49,404.346c-1.07-1.575-3.229-7.495-3.229-21.096
				c0-13.802,2.243-19.472,3.229-20.723c0.993,1.194,3.205,6.775,3.205,20.723C512.696,397.016,510.562,402.851,509.49,404.346
				L509.49,404.346z"/>
		</g>
		<g>
			<path fill="#555555" d="M578.622,446.783c-3.73-15.281-5.596-22.688-9.328-37.069c0,14.058,0,21.088,0,35.146
				c-8.767-1.768-13.154-2.606-21.93-4.196c0-45.93,0-68.895,0-114.825c9.826-1.779,14.736-2.726,24.552-4.729
				c11.986-2.446,26.255,2.154,26.255,39.488c0,15.476-3.434,28.055-9.558,34.891c5.285,21.593,7.927,32.853,13.208,56.428
				C592.548,449.762,587.907,448.737,578.622,446.783z M571.481,373.77c2.759-0.086,5.141-0.163,5.141-11.14
				c0-5.563-0.778-7.584-1.242-8.288c-0.616-0.936-1.929-1.303-3.898-1.108c-0.876,0.086-1.312,0.13-2.188,0.215
				c0,8.155,0,12.232,0,20.388C570.17,373.809,570.605,373.797,571.481,373.77z"/>
			<path fill="#FFFFFF" d="M571.916,327.598c13.539-2.475,21.769,6.497,21.769,33.34c0,16.332-4.332,27.19-10.575,31.523
				c4.891,19.566,7.335,29.735,12.223,50.952c-5.443-1.103-8.167-1.636-13.614-2.677c-4.337-17.855-6.505-26.461-10.844-43.094
				c-2.43-0.114-3.646-0.17-6.075-0.281c0,16.105,0,24.156,0,40.262c-5.174-0.915-7.762-1.358-12.939-2.218
				c0-41.724,0-62.587,0-104.312C559.886,329.762,563.897,329.063,571.916,327.598 M564.799,380.312
				c2.674-0.025,4.01-0.04,6.683-0.066c6.422-0.063,9.632-4.899,9.632-17.925c0-12.403-3.21-16.336-9.632-15.566
				c-2.673,0.32-4.009,0.476-6.683,0.786C564.799,360.649,564.799,367.204,564.799,380.312 M571.916,314.624
				c-8.019,1.808-12.03,2.67-20.057,4.312c-3.597,0.736-5.395,1.095-8.993,1.798c0,4.729,0,7.092,0,11.82
				c0,40.558,0,60.836,0,101.393c0,4.729,0,7.095,0,11.823c3.599,0.703,5.396,1.061,8.993,1.797
				c5.178,1.06,7.766,1.607,12.939,2.735c3.595,0.784,5.393,1.184,8.985,2c0-2.662,0-3.994,0-6.656
				c0.696,2.805,1.043,4.218,1.739,7.055c2.478,0.567,3.717,0.854,6.194,1.438c5.447,1.283,8.171,1.942,13.614,3.302
				c5.192,1.297,7.786,1.963,12.975,3.329c-1.834-8.418-2.752-12.562-4.586-20.727c-3.922-17.459-5.881-25.9-9.805-42.253
				c5.631-8.405,8.738-21.736,8.738-37.539c0-17.192-2.8-30.204-8.327-37.974C588.982,314.768,581.445,312.477,571.916,314.624
				L571.916,314.624z"/>
		</g>
	</g>
</g>
<g>
	<g>
		<path fill="#555555" stroke="#555555" stroke-miterlimit="10" d="M170.916,466.531c2.176,2.166,3.276,3.229,5.501,5.314
			c-1.638,6.578-2.373,9.91-3.667,16.653c-0.46,2.385-0.694,3.6-1.372,6.308c0.032,0.027,0.048,0.041,0.08,0.068
			c5.322-6.217,7.983-9.326,13.305-15.542c2.016,1.729,3.033,2.579,5.083,4.247c-8.314,10.244-12.47,15.371-20.784,25.615
			c-2.369-1.928-3.544-2.911-5.873-4.912c0.994-7.583,1.601-11.335,3.024-18.736c0.412-2.048,0.634-3.12,1.318-5.479
			c-0.029-0.028-0.043-0.042-0.073-0.07c-5.738,6.083-8.608,9.125-14.346,15.207c-2.206-2.084-3.299-3.143-5.462-5.296
			C156.954,480.56,161.609,475.881,170.916,466.531z"/>
		<path fill="#555555" stroke="#555555" stroke-miterlimit="10" d="M202.132,492.965c3.896,2.79,5.871,4.133,9.865,6.715
			c4.935,3.189,8.442,7.189,5.132,12.848c-2.431,4.154-5.959,4.416-8.985,3.439c-0.019,0.03-0.027,0.044-0.046,0.074
			c2.977,2.674,4.567,5.804,1.835,10.507c-3.335,5.742-9.828,4.717-15.413,1.12c-4.684-3.017-6.997-4.591-11.561-7.859
			C190.628,509.072,194.462,503.701,202.132,492.965z M204.139,510.949c2.788,1.81,4.879,1.624,6.384-0.8
			c1.529-2.462,0.896-4.253-1.886-6.058c-1.548-1.004-2.318-1.514-3.852-2.549c-1.832,2.722-2.749,4.083-4.581,6.805
			C201.771,509.404,202.559,509.923,204.139,510.949z M196.95,522.917c3.199,2.068,5.535,1.549,7.081-0.954
			c1.663-2.693,0.694-4.949-2.397-6.954c-1.644-1.065-2.462-1.605-4.09-2.704c-2.051,3.047-3.076,4.57-5.127,7.618
			C194.221,521.141,195.127,521.738,196.95,522.917z"/>
		<path fill="#555555" stroke="#555555" stroke-miterlimit="10" d="M222.555,543.533c-2.67-1.316-3.999-1.993-6.641-3.383
			c10.204-9.603,15.091-14.577,24.408-24.817c2.438,1.16,3.664,1.721,6.126,2.812c-1.709,13.735-2.311,20.677-2.998,34.656
			c-2.96-1.172-4.435-1.778-7.368-3.036c0.331-2.886,0.508-4.328,0.878-7.203c-3.805-1.665-5.695-2.534-9.448-4.349
			C225.547,540.354,224.556,541.418,222.555,543.533z M238.157,533.685c0.525-3.578,0.837-6.129,1.517-9.203
			c-0.035-0.016-0.053-0.024-0.088-0.04c-1.868,2.575-3.609,4.369-6.033,7.07c-0.936,1.057-1.405,1.586-2.35,2.637
			c2.568,1.224,3.859,1.817,6.452,2.971C237.852,535.744,237.952,535.058,238.157,533.685z"/>
		<path fill="#555555" stroke="#555555" stroke-miterlimit="10" d="M284.565,531.606c3.955,1.033,5.941,1.507,9.927,2.377
			c6.095,1.33,11.114,4.609,9.734,12.692c-1.463,8.568-8.253,9.628-14.432,8.277c-1.39-0.304-2.084-0.461-3.472-0.783
			c-1.045,4.479-1.567,6.719-2.613,11.198c-3.012-0.699-4.515-1.071-7.51-1.854C279.546,550.751,281.219,544.37,284.565,531.606z
			 M291.133,549.769c3.74,0.814,5.591-0.57,6.3-4.155c0.684-3.456-0.423-5.284-4.108-6.088c-1.364-0.298-2.044-0.451-3.406-0.768
			c-0.952,4.081-1.429,6.121-2.381,10.202C288.974,549.293,289.694,549.455,291.133,549.769z"/>
		<path fill="#555555" stroke="#555555" stroke-miterlimit="10" d="M319.088,538.091c2.741,0.319,4.113,0.46,6.86,0.704
			c-0.978,10.921-1.466,16.381-2.443,27.301c5.572,0.495,8.363,0.674,13.949,0.891c-0.087,2.227-0.128,3.343-0.216,5.569
			c-8.813-0.343-13.218-0.686-21.988-1.707C316.786,557.745,317.552,551.194,319.088,538.091z"/>
		<path fill="#555555" stroke="#555555" stroke-miterlimit="10" d="M356.612,572.649c-2.912,0.084-4.368,0.111-7.281,0.121
			c4.405-13.26,6.349-19.94,9.715-33.341c2.644-0.111,3.966-0.188,6.607-0.368c4.836,12.945,7.511,19.372,13.368,32.062
			c-3.123,0.337-4.685,0.481-7.814,0.732c-1.042-2.707-1.551-4.062-2.553-6.777c-4.074,0.297-6.115,0.409-10.196,0.557
			C357.74,568.445,357.372,569.845,356.612,572.649z M365.603,556.668c-1.19-3.409-2.09-5.812-2.914-8.847
			c-0.038,0.002-0.056,0.004-0.094,0.006c-0.437,3.147-1.121,5.546-1.98,9.064c-0.325,1.371-0.49,2.059-0.825,3.429
			c2.785-0.116,4.177-0.191,6.959-0.379C366.285,558.633,366.057,557.979,365.603,556.668z"/>
		<path fill="#555555" stroke="#555555" stroke-miterlimit="10" d="M394.666,555.892c-5.392-7.214-7.946-10.885-12.76-18.335
			c2.791-0.373,4.185-0.58,6.966-1.031c3.263,5.105,4.957,7.633,8.474,12.636c0.039-0.007,0.058-0.011,0.097-0.018
			c1.463-5.934,2.126-8.903,3.319-14.843c2.636-0.559,3.95-0.856,6.573-1.486c-1.827,8.672-2.896,13.012-5.342,21.667
			c1.024,5.087,1.538,7.629,2.562,12.715c-3.067,0.615-4.604,0.903-7.685,1.434C395.988,563.535,395.547,560.987,394.666,555.892z"
			/>
		<path fill="#555555" stroke="#555555" stroke-miterlimit="10" d="M420.135,546.539c-3.163-11.383,1.309-18.091,8.238-20.416
			c6.889-2.312,14.553,0.326,18.912,11.307s-0.167,18.519-7.996,21.145C431.414,561.216,423.298,557.922,420.135,546.539z
			 M440.286,540.091c-2.507-6.868-6.033-9.827-10.065-8.475c-4.078,1.368-5.088,5.849-2.936,12.836
			c2.152,6.986,5.773,10.288,10.214,8.798C441.891,551.776,442.793,546.958,440.286,540.091z"/>
		<path fill="#555555" stroke="#555555" stroke-miterlimit="10" d="M453.65,516.769c6.984-3.217,10.43-4.968,17.201-8.747
			c1.111,1.994,1.667,2.99,2.778,4.984c-4.395,2.452-6.618,3.623-11.103,5.844c1.447,2.924,2.173,4.383,3.621,7.308
			c3.312-1.641,4.957-2.49,8.223-4.253c1.024,1.899,1.535,2.849,2.56,4.748c-3.332,1.799-5.012,2.668-8.392,4.342
			c2.438,4.923,3.658,7.386,6.096,12.308c-2.856,1.414-4.293,2.099-7.18,3.429C461.932,534.746,459.173,528.753,453.65,516.769z"/>
		<path fill="#555555" stroke="#555555" stroke-miterlimit="10" d="M482.027,501.397c6.611-4.154,9.855-6.373,16.198-11.09
			c1.359,1.833,2.041,2.752,3.4,4.585c-4.116,3.061-6.203,4.533-10.433,7.362c1.811,2.714,2.716,4.071,4.527,6.785
			c3.124-2.09,4.674-3.167,7.738-5.379c1.261,1.751,1.888,2.625,3.148,4.376c-3.127,2.258-4.706,3.355-7.894,5.488
			c3.049,4.568,4.574,6.854,7.623,11.422c-2.694,1.802-4.048,2.683-6.781,4.4C492.544,518.169,489.038,512.576,482.027,501.397z"/>
		<path fill="#555555" stroke="#555555" stroke-miterlimit="10" d="M523.166,503.481c1.316-2.497,1.958-3.753,3.205-6.271
			c3.128,1.082,6.751,1.083,9.621-1.518c2.553-2.312,2.847-4.688,1.32-6.312c-1.861-1.98-5.073-0.684-8.664,0.75
			c-4.971,1.985-10.977,4.253-15.191-0.88c-3.48-4.237-2.117-10.101,2.719-14.459c4.551-4.101,9.399-4.454,13.95-3.067
			c-0.879,2.478-1.334,3.713-2.278,6.18c-3.033-0.931-5.782-0.916-8.055,1.129c-1.942,1.749-2.119,3.784-0.89,5.197
			c1.726,1.983,4.704,1.1,8.055-0.2c4.996-1.938,11.171-5.115,15.889-0.376c3.521,3.537,3.31,10.111-3.233,16.039
			C533.721,505.032,528.134,505.415,523.166,503.481z"/>
	</g>
</g>
<g>
	<path fill="#BBBBBB" d="M345.93,12.5c162.056,0,293.43,133.867,293.43,299c0,165.133-131.374,299-293.43,299
		c-162.057,0-293.43-133.867-293.43-299C52.5,146.367,183.874,12.5,345.93,12.5 M345.93-2.5c-41.667,0-82.092,8.318-120.153,24.722
		c-36.736,15.833-69.722,38.492-98.039,67.347c-28.298,28.835-50.515,62.412-66.033,99.797C45.644,228.06,37.5,269.151,37.5,311.5
		s8.144,83.44,24.205,122.135c15.518,37.385,37.735,70.961,66.033,99.797c28.317,28.854,61.303,51.514,98.039,67.347
		c38.062,16.404,78.487,24.722,120.153,24.722c41.666,0,82.091-8.317,120.153-24.722c36.736-15.833,69.722-38.492,98.039-67.347
		c28.298-28.836,50.515-62.412,66.033-99.797c16.062-38.694,24.205-79.786,24.205-122.135s-8.144-83.44-24.205-122.135
		c-15.519-37.385-37.735-70.961-66.033-99.797c-28.317-28.854-61.303-51.513-98.039-67.347C428.021,5.818,387.596-2.5,345.93-2.5
		L345.93-2.5z"/>
</g>
</svg>
