<?xml version="1.0" encoding="utf-8"?>
<!-- Generator: Adobe Illustrator 15.1.0, SVG Export Plug-In . SVG Version: 6.00 Build 0)  -->
<!DOCTYPE svg PUBLIC "-//W3C//DTD SVG 1.1//EN" "http://www.w3.org/Graphics/SVG/1.1/DTD/svg11.dtd">
<svg version="1.1" id="Layer_1" xmlns="http://www.w3.org/2000/svg" xmlns:xlink="http://www.w3.org/1999/xlink" x="0px" y="0px"
	 width="408.954px" height="564px" viewBox="197.396 20.5 408.954 564" enable-background="new 197.396 20.5 408.954 564"
	 xml:space="preserve">
<title>Layer 1</title>
<g id="zWTlbn_1_">
</g>
<g>
	<g>
		<path fill="#555555" d="M220.814,428.086h6.732l16.626,26.826h0.102v-26.826h6.069V464.5h-6.732l-16.575-26.775h-0.153V464.5
			h-6.069V428.086z"/>
		<path fill="#555555" d="M257.89,428.086h17.697c3.264,0,5.881,0.748,7.854,2.244c1.972,1.496,2.958,3.757,2.958,6.783
			c0,1.836-0.451,3.409-1.351,4.717c-0.901,1.31-2.185,2.321-3.851,3.035v0.102c2.244,0.477,3.944,1.539,5.1,3.188
			c1.155,1.649,1.734,3.715,1.734,6.196c0,1.429-0.255,2.763-0.765,4.004c-0.51,1.241-1.309,2.312-2.397,3.213
			c-1.088,0.901-2.482,1.615-4.182,2.143c-1.7,0.527-3.723,0.79-6.069,0.79H257.89V428.086z M264.265,443.335h10.404
			c1.53,0,2.805-0.434,3.825-1.301c1.02-0.866,1.53-2.116,1.53-3.748c0-1.836-0.459-3.128-1.377-3.876s-2.244-1.122-3.978-1.122
			h-10.404V443.335z M264.265,459.298h11.271c1.938,0,3.442-0.501,4.514-1.504c1.071-1.003,1.606-2.423,1.606-4.259
			c0-1.802-0.536-3.188-1.606-4.156c-1.071-0.97-2.576-1.454-4.514-1.454h-11.271V459.298z"/>
		<path fill="#555555" d="M303.535,428.086h6.783l14.025,36.414h-6.834l-3.417-9.639h-14.535l-3.417,9.639h-6.579L303.535,428.086z
			 M301.291,450.016h11.118l-5.457-15.656h-0.153L301.291,450.016z"/>
		<path fill="#555555" d="M341.989,428.086h16.065c2.583,0,4.692,0.375,6.324,1.122c1.632,0.748,2.889,1.683,3.774,2.805
			c0.884,1.122,1.487,2.347,1.811,3.672c0.323,1.326,0.484,2.551,0.484,3.673c0,1.121-0.162,2.338-0.484,3.646
			c-0.324,1.309-0.927,2.524-1.811,3.646c-0.885,1.122-2.142,2.049-3.774,2.779c-1.632,0.731-3.741,1.097-6.324,1.097h-9.69V464.5
			h-6.375V428.086z M348.364,445.324h9.333c0.714,0,1.445-0.103,2.193-0.307c0.748-0.203,1.436-0.535,2.065-0.994
			c0.629-0.459,1.139-1.071,1.53-1.836c0.391-0.765,0.586-1.726,0.586-2.882c0-1.189-0.17-2.175-0.51-2.958
			c-0.34-0.781-0.799-1.402-1.377-1.861s-1.241-0.772-1.989-0.943c-0.748-0.17-1.547-0.255-2.397-0.255h-9.435V445.324z"/>
		<path fill="#555555" d="M376.005,428.086h6.375v30.906h18.513v5.508h-24.888V428.086z"/>
		<path fill="#555555" d="M415.02,428.086h6.783l14.025,36.414h-6.834l-3.418-9.639h-14.534l-3.417,9.639h-6.579L415.02,428.086z
			 M412.775,450.016h11.119l-5.457-15.656h-0.154L412.775,450.016z"/>
		<path fill="#555555" d="M445.008,450.22l-13.668-22.134h7.395l9.64,16.32l9.485-16.32H465l-13.617,22.134v14.28h-6.375V450.22z"/>
		<path fill="#555555" d="M484.074,427.219c2.719,0,5.158,0.51,7.318,1.53c2.158,1.02,3.986,2.397,5.482,4.131
			c1.496,1.734,2.643,3.758,3.442,6.069c0.798,2.312,1.198,4.761,1.198,7.344c0,2.618-0.4,5.083-1.198,7.396
			c-0.8,2.312-1.946,4.335-3.442,6.068c-1.496,1.734-3.324,3.104-5.482,4.105c-2.16,1.003-4.6,1.505-7.318,1.505
			c-2.721,0-5.16-0.502-7.318-1.505c-2.16-1.002-3.987-2.371-5.482-4.105c-1.497-1.733-2.645-3.756-3.443-6.068
			s-1.198-4.777-1.198-7.396c0-2.583,0.399-5.031,1.198-7.344c0.799-2.312,1.946-4.335,3.443-6.069
			c1.495-1.733,3.322-3.111,5.482-4.131C478.914,427.729,481.354,427.219,484.074,427.219z M484.074,432.421
			c-1.938,0-3.613,0.392-5.023,1.173c-1.412,0.783-2.559,1.828-3.443,3.137c-0.885,1.31-1.539,2.797-1.963,4.463
			c-0.426,1.666-0.638,3.365-0.638,5.1s0.212,3.435,0.638,5.1c0.424,1.667,1.078,3.154,1.963,4.463
			c0.885,1.31,2.031,2.354,3.443,3.137c1.41,0.782,3.085,1.173,5.023,1.173c1.938,0,3.611-0.391,5.023-1.173
			c1.41-0.782,2.558-1.827,3.442-3.137c0.884-1.309,1.538-2.796,1.964-4.463c0.424-1.665,0.637-3.365,0.637-5.1
			s-0.213-3.434-0.637-5.1c-0.426-1.666-1.08-3.153-1.964-4.463c-0.885-1.309-2.032-2.354-3.442-3.137
			C487.686,432.812,486.012,432.421,484.074,432.421z"/>
		<path fill="#555555" d="M507.329,428.086h25.144v5.508h-18.769v9.537h16.474v5.202h-16.474V464.5h-6.375V428.086z"/>
		<path fill="#555555" d="M537.572,428.086h25.143v5.508h-18.768v9.537h16.473v5.202h-16.473V464.5h-6.375V428.086z"/>
		<path fill="#555555" d="M571.996,452.362c0,1.395,0.238,2.584,0.715,3.569c0.475,0.987,1.139,1.794,1.988,2.423
			c0.85,0.63,1.826,1.089,2.932,1.377c1.105,0.289,2.303,0.434,3.596,0.434c1.395,0,2.584-0.161,3.57-0.484s1.785-0.739,2.396-1.25
			c0.613-0.51,1.055-1.096,1.326-1.759s0.408-1.334,0.408-2.015c0-1.394-0.314-2.423-0.943-3.086s-1.318-1.13-2.064-1.402
			c-1.293-0.476-2.799-0.926-4.514-1.352c-1.719-0.425-3.834-0.977-6.35-1.657c-1.564-0.408-2.865-0.943-3.902-1.606
			s-1.861-1.402-2.473-2.219c-0.613-0.816-1.047-1.683-1.301-2.601c-0.256-0.918-0.383-1.854-0.383-2.806
			c0-1.836,0.383-3.425,1.146-4.769c0.766-1.343,1.777-2.456,3.035-3.34s2.686-1.538,4.285-1.964
			c1.598-0.425,3.213-0.638,4.844-0.638c1.904,0,3.697,0.247,5.381,0.74s3.162,1.232,4.438,2.218
			c1.275,0.986,2.285,2.202,3.033,3.646c0.748,1.445,1.123,3.12,1.123,5.023h-6.375c-0.17-2.346-0.969-4.003-2.396-4.973
			c-1.43-0.969-3.248-1.453-5.457-1.453c-0.748,0-1.514,0.076-2.295,0.229c-0.783,0.153-1.498,0.408-2.143,0.765
			c-0.646,0.357-1.182,0.842-1.607,1.454s-0.637,1.377-0.637,2.295c0,1.292,0.398,2.304,1.199,3.034
			c0.797,0.731,1.844,1.284,3.135,1.658c0.137,0.034,0.672,0.178,1.607,0.433c0.936,0.256,1.98,0.536,3.137,0.842
			s2.285,0.604,3.391,0.893c1.105,0.289,1.896,0.502,2.373,0.638c1.189,0.374,2.227,0.885,3.109,1.53
			c0.885,0.646,1.623,1.386,2.219,2.218c0.596,0.834,1.037,1.727,1.326,2.678c0.289,0.952,0.434,1.904,0.434,2.856
			c0,2.04-0.416,3.782-1.25,5.228c-0.832,1.445-1.93,2.626-3.289,3.544s-2.906,1.59-4.641,2.015s-3.502,0.638-5.305,0.638
			c-2.074,0-4.029-0.255-5.865-0.766c-1.836-0.51-3.434-1.291-4.793-2.346c-1.361-1.054-2.447-2.405-3.264-4.055
			c-0.816-1.648-1.242-3.595-1.275-5.839H571.996z"/>
		<path fill="#555555" d="M197.396,485.092h22.68c3.647,0,6.624,0.529,8.928,1.584c2.304,1.057,4.079,2.376,5.328,3.96
			c1.248,1.584,2.099,3.312,2.556,5.185c0.456,1.872,0.684,3.6,0.684,5.184s-0.229,3.301-0.684,5.148
			c-0.457,1.848-1.308,3.563-2.556,5.147c-1.249,1.584-3.024,2.893-5.328,3.924c-2.304,1.033-5.281,1.549-8.928,1.549h-13.68V536.5
			h-9V485.092z M206.396,509.428h13.176c1.008,0,2.04-0.144,3.096-0.432c1.055-0.288,2.027-0.756,2.916-1.404
			c0.888-0.647,1.607-1.512,2.16-2.592c0.551-1.08,0.828-2.436,0.828-4.068c0-1.68-0.241-3.071-0.72-4.176
			c-0.48-1.104-1.128-1.979-1.944-2.628c-0.816-0.647-1.752-1.091-2.808-1.332c-1.056-0.239-2.185-0.36-3.384-0.36h-13.32V509.428z"
			/>
		<path fill="#555555" d="M245.419,485.092h24.552c5.663,0,9.911,1.225,12.744,3.672c2.832,2.448,4.248,5.857,4.248,10.225
			c0,2.447-0.36,4.477-1.08,6.084c-0.72,1.608-1.561,2.904-2.52,3.888c-0.961,0.984-1.908,1.692-2.844,2.124
			c-0.936,0.432-1.62,0.72-2.052,0.864v0.144c0.767,0.097,1.595,0.337,2.484,0.72c0.888,0.385,1.716,0.997,2.484,1.837
			c0.768,0.84,1.404,1.933,1.908,3.275c0.504,1.345,0.756,3.024,0.756,5.04c0,3.024,0.228,5.772,0.684,8.244
			c0.456,2.473,1.163,4.236,2.124,5.292h-9.648c-0.673-1.104-1.069-2.327-1.188-3.672c-0.121-1.344-0.18-2.64-0.18-3.888
			c0-2.352-0.144-4.38-0.432-6.084c-0.288-1.704-0.817-3.12-1.584-4.248c-0.769-1.128-1.812-1.956-3.132-2.484
			c-1.321-0.527-3.013-0.792-5.076-0.792h-13.248V536.5h-9V485.092z M254.419,508.492h14.76c2.88,0,5.063-0.685,6.552-2.052
			c1.487-1.368,2.232-3.421,2.232-6.156c0-1.632-0.241-2.964-0.72-3.996c-0.48-1.031-1.141-1.836-1.98-2.412
			c-0.84-0.576-1.8-0.96-2.88-1.152c-1.08-0.19-2.196-0.288-3.348-0.288h-14.616V508.492z"/>
		<path fill="#555555" d="M296.106,485.092h37.008v7.776h-28.008v13.464h25.92v7.344h-25.92v15.048h28.512v7.776h-37.512V485.092z"
			/>
		<path fill="#555555" d="M341.466,485.092h21.312c3.935,0,7.344,0.673,10.224,2.017c2.88,1.344,5.231,3.18,7.056,5.508
			c1.824,2.328,3.179,5.052,4.068,8.172c0.888,3.121,1.332,6.456,1.332,10.008c0,3.553-0.444,6.889-1.332,10.008
			c-0.889,3.121-2.244,5.845-4.068,8.172c-1.825,2.329-4.176,4.165-7.056,5.509c-2.88,1.344-6.289,2.016-10.224,2.016h-21.312
			V485.092z M350.466,529.156h8.856c3.503,0,6.372-0.468,8.604-1.404c2.232-0.936,3.983-2.232,5.256-3.888
			c1.271-1.656,2.135-3.601,2.592-5.832c0.456-2.232,0.684-4.645,0.684-7.236s-0.228-5.004-0.684-7.236
			c-0.457-2.231-1.32-4.176-2.592-5.832c-1.272-1.655-3.024-2.951-5.256-3.888c-2.232-0.936-5.101-1.404-8.604-1.404h-8.856V529.156
			z"/>
		<path fill="#555555" d="M393.449,485.092h9V536.5h-9V485.092z"/>
		<path fill="#555555" d="M448.168,501.436c-0.385-1.486-0.912-2.854-1.584-4.104c-0.672-1.248-1.536-2.328-2.592-3.24
			c-1.056-0.911-2.293-1.62-3.707-2.124c-1.417-0.504-3.061-0.756-4.933-0.756c-2.735,0-5.101,0.553-7.092,1.656
			c-1.993,1.104-3.612,2.581-4.86,4.428c-1.248,1.849-2.172,3.949-2.771,6.3c-0.602,2.353-0.9,4.752-0.9,7.2s0.299,4.849,0.9,7.2
			c0.6,2.353,1.523,4.453,2.771,6.3c1.248,1.849,2.867,3.324,4.86,4.428c1.991,1.105,4.356,1.656,7.092,1.656
			c2.017,0,3.792-0.348,5.328-1.044c1.536-0.695,2.855-1.656,3.96-2.88c1.104-1.224,1.968-2.651,2.592-4.284
			c0.623-1.631,1.031-3.384,1.225-5.256h8.783c-0.191,3.072-0.853,5.88-1.979,8.424c-1.128,2.545-2.653,4.741-4.572,6.588
			c-1.921,1.849-4.176,3.276-6.768,4.284c-2.593,1.008-5.448,1.512-8.568,1.512c-3.841,0-7.284-0.708-10.332-2.124
			c-3.048-1.415-5.628-3.348-7.739-5.796c-2.113-2.447-3.733-5.303-4.86-8.567c-1.128-3.264-1.692-6.743-1.692-10.44
			c0-3.647,0.564-7.104,1.692-10.368c1.127-3.264,2.747-6.12,4.86-8.567c2.111-2.448,4.691-4.393,7.739-5.832
			c3.048-1.44,6.491-2.16,10.332-2.16c2.88,0,5.591,0.396,8.136,1.188c2.544,0.792,4.789,1.944,6.732,3.456
			c1.943,1.513,3.516,3.349,4.716,5.508c1.199,2.16,1.944,4.633,2.231,7.416H448.168z"/>
		<path fill="#555555" d="M460.552,485.092h41.616v7.776h-16.344V536.5h-9v-43.632h-16.272V485.092z"/>
		<path fill="#555555" d="M530.03,483.868c3.84,0,7.283,0.72,10.332,2.16c3.048,1.439,5.628,3.384,7.74,5.832
			c2.111,2.447,3.731,5.304,4.86,8.567c1.127,3.265,1.691,6.721,1.691,10.368c0,3.697-0.564,7.177-1.691,10.44
			c-1.129,3.265-2.749,6.12-4.86,8.567c-2.112,2.448-4.692,4.381-7.74,5.796c-3.049,1.416-6.492,2.124-10.332,2.124
			c-3.841,0-7.284-0.708-10.332-2.124c-3.048-1.415-5.628-3.348-7.739-5.796c-2.113-2.447-3.733-5.303-4.86-8.567
			c-1.128-3.264-1.692-6.743-1.692-10.44c0-3.647,0.564-7.104,1.692-10.368c1.127-3.264,2.747-6.12,4.86-8.567
			c2.111-2.448,4.691-4.393,7.739-5.832C522.746,484.588,526.189,483.868,530.03,483.868z M530.03,491.212
			c-2.735,0-5.101,0.553-7.092,1.656c-1.993,1.104-3.612,2.581-4.86,4.428c-1.248,1.849-2.172,3.949-2.771,6.3
			c-0.602,2.353-0.9,4.752-0.9,7.2s0.299,4.849,0.9,7.2c0.6,2.353,1.523,4.453,2.771,6.3c1.248,1.849,2.867,3.324,4.86,4.428
			c1.991,1.105,4.356,1.656,7.092,1.656c2.736,0,5.1-0.551,7.093-1.656c1.99-1.104,3.611-2.579,4.859-4.428
			c1.248-1.847,2.172-3.947,2.771-6.3c0.6-2.352,0.9-4.752,0.9-7.2s-0.301-4.848-0.9-7.2c-0.6-2.351-1.523-4.451-2.771-6.3
			c-1.248-1.847-2.869-3.323-4.859-4.428C535.13,491.765,532.767,491.212,530.03,491.212z"/>
		<path fill="#555555" d="M562.861,485.092h24.553c5.664,0,9.912,1.225,12.744,3.672c2.832,2.448,4.248,5.857,4.248,10.225
			c0,2.447-0.359,4.477-1.08,6.084c-0.721,1.608-1.561,2.904-2.52,3.888c-0.961,0.984-1.908,1.692-2.844,2.124
			c-0.938,0.432-1.621,0.72-2.053,0.864v0.144c0.768,0.097,1.596,0.337,2.484,0.72c0.887,0.385,1.715,0.997,2.484,1.837
			c0.766,0.84,1.402,1.933,1.908,3.275c0.504,1.345,0.756,3.024,0.756,5.04c0,3.024,0.227,5.772,0.684,8.244
			c0.455,2.473,1.162,4.236,2.123,5.292h-9.648c-0.672-1.104-1.068-2.327-1.188-3.672c-0.119-1.344-0.18-2.64-0.18-3.888
			c0-2.352-0.145-4.38-0.432-6.084c-0.289-1.704-0.816-3.12-1.584-4.248c-0.77-1.128-1.812-1.956-3.133-2.484
			c-1.32-0.527-3.012-0.792-5.076-0.792h-13.248V536.5h-9V485.092z M571.861,508.492h14.762c2.879,0,5.062-0.685,6.551-2.052
			c1.488-1.368,2.232-3.421,2.232-6.156c0-1.632-0.24-2.964-0.721-3.996c-0.48-1.031-1.141-1.836-1.979-2.412
			c-0.842-0.576-1.801-0.96-2.881-1.152c-1.08-0.19-2.195-0.288-3.348-0.288h-14.617V508.492z"/>
	</g>
	<g>
		<g id="Ndl7qU.tif">
			<g>
				<path fill-rule="evenodd" clip-rule="evenodd" fill="#555555" d="M389.395,20.5c7.07,0,14.141,0,21.211,0
					C511.066,33.639,567.773,90.521,581,190.895c0,7.07,0,14.141,0,21.211C567.711,312.646,510.852,369.624,409.898,382.5
					c-6.6,0-13.197,0-19.797,0C289.138,369.634,232.268,312.667,219,212.105c0-7.07,0-14.141,0-21.211
					c3.085-49.905,25.98-89.688,53.734-117.367C301.476,44.863,339.725,24.146,389.395,20.5z M286.875,78.477
					c21.884,31.143,39.249,66.806,43.129,115.953c20.739,0,41.479,0,62.219,0c0-53.498,0-106.998,0-160.496
					C345.206,36.881,312.226,53.864,286.875,78.477z M405.656,194.43c20.975,0,41.949,0,62.926,0
					c3.758-49.739,21.279-85.719,43.836-116.66c-25.625-24.339-58.57-41.357-106.055-43.836
					C404.713,86.018,406.127,141.167,405.656,194.43z M521.609,86.961c-19.754,29.268-36.713,61.329-39.594,107.469
					c28.516,0,57.033,0,85.551,0C564.783,146.07,546.994,112.717,521.609,86.961z M276.977,87.668
					c-24,26.435-42.035,58.835-44.543,106.762c27.812-0.468,57.501,0.938,84.137-0.707
					C313.038,148.704,297.02,116.175,276.977,87.668z M233.141,207.156c0.433,47.174,19.429,81.912,43.836,107.469
					c19.694-29.326,37.231-60.81,39.594-107.469C288.76,207.156,260.95,207.156,233.141,207.156z M329.297,209.277
					c-2.627,50.4-21.401,84.654-43.836,115.246c27.17,23.265,58.844,42.025,106.762,44.543c0-53.971,0-107.94,0-161.91
					c-20.504,0-41.008,0-61.512,0C329.822,207.446,329.266,208.068,329.297,209.277z M405.656,369.066
					c48.342-2.33,81.553-19.788,107.469-44.543c-23.361-30.607-41.471-66.47-44.543-117.367c-20.74,0-41.479,0-62.219,0
					C404.713,259.712,406.127,315.333,405.656,369.066z M482.723,207.156c0.354,46.076,19.568,79.416,39.594,108.176
					c25.143-25.998,42.908-59.376,45.25-108.176C539.285,207.156,511.004,207.156,482.723,207.156z"/>
				<path fill-rule="evenodd" clip-rule="evenodd" fill="#FFFFFF" d="M392.223,33.934c0,53.499,0,106.998,0,160.496
					c-20.74,0-41.479,0-62.219,0c-3.88-49.147-21.245-84.811-43.129-115.953C312.226,53.864,345.206,36.881,392.223,33.934z"/>
				<path fill-rule="evenodd" clip-rule="evenodd" fill="#FFFFFF" d="M406.363,33.934c47.484,2.479,80.43,19.497,106.055,43.836
					c-22.557,30.941-40.078,66.921-43.836,116.66c-20.977,0-41.951,0-62.926,0C406.127,141.167,404.713,86.018,406.363,33.934z"/>
				<path fill-rule="evenodd" clip-rule="evenodd" fill="#FFFFFF" d="M567.566,194.43c-28.518,0-57.035,0-85.551,0
					c2.881-46.14,19.84-78.201,39.594-107.469C546.994,112.717,564.783,146.07,567.566,194.43z"/>
				<path fill-rule="evenodd" clip-rule="evenodd" fill="#FFFFFF" d="M316.57,193.723c-26.636,1.646-56.324,0.239-84.137,0.707
					c2.508-47.927,20.543-80.327,44.543-106.762C297.02,116.175,313.038,148.704,316.57,193.723z"/>
				<path fill-rule="evenodd" clip-rule="evenodd" fill="#FFFFFF" d="M316.57,207.156c-2.362,46.659-19.899,78.143-39.594,107.469
					c-24.407-25.557-43.403-60.295-43.836-107.469C260.95,207.156,288.76,207.156,316.57,207.156z"/>
				<path fill-rule="evenodd" clip-rule="evenodd" fill="#FFFFFF" d="M330.711,207.156c20.504,0,41.008,0,61.512,0
					c0,53.97,0,107.939,0,161.91c-47.918-2.518-79.592-21.278-106.762-44.543c22.435-30.592,41.209-64.846,43.836-115.246
					C329.266,208.068,329.822,207.446,330.711,207.156z"/>
				<path fill-rule="evenodd" clip-rule="evenodd" fill="#FFFFFF" d="M406.363,207.156c20.74,0,41.479,0,62.219,0
					c3.072,50.897,21.182,86.76,44.543,117.367c-25.916,24.755-59.127,42.213-107.469,44.543
					C406.127,315.333,404.713,259.712,406.363,207.156z"/>
				<path fill-rule="evenodd" clip-rule="evenodd" fill="#FFFFFF" d="M567.566,207.156c-2.342,48.8-20.107,82.178-45.25,108.176
					c-20.025-28.76-39.24-62.1-39.594-108.176C511.004,207.156,539.285,207.156,567.566,207.156z"/>
			</g>
		</g>
		<rect x="410" y="108.783" fill-rule="evenodd" clip-rule="evenodd" fill="#FFFFFF" width="124.5" height="66.021"/>
		<g>
			<path fill="#0066CC" d="M447.182,156.618h-23.186c0.033-2.813,0.711-5.271,2.037-7.373s3.137-3.929,5.434-5.481
				c1.1-0.808,2.246-1.592,3.443-2.353c1.195-0.759,2.295-1.576,3.299-2.449c1.002-0.873,1.826-1.819,2.473-2.838
				s0.986-2.19,1.02-3.517c0-0.614-0.072-1.269-0.219-1.964c-0.145-0.695-0.428-1.341-0.848-1.94
				c-0.422-0.598-1.004-1.099-1.746-1.504c-0.746-0.404-1.715-0.606-2.912-0.606c-1.1,0-2.012,0.218-2.74,0.655
				c-0.727,0.437-1.309,1.036-1.746,1.795c-0.436,0.76-0.76,1.657-0.969,2.692c-0.211,1.035-0.332,2.151-0.365,3.347h-5.529
				c0-1.875,0.25-3.614,0.752-5.214c0.502-1.601,1.254-2.983,2.256-4.147s2.223-2.077,3.662-2.74
				c1.438-0.663,3.111-0.995,5.02-0.995c2.07,0,3.801,0.339,5.191,1.019c1.389,0.679,2.514,1.536,3.371,2.571
				c0.855,1.035,1.463,2.159,1.818,3.371c0.355,1.213,0.533,2.369,0.533,3.468c0,1.358-0.211,2.587-0.631,3.687
				c-0.42,1.1-0.986,2.11-1.697,3.031c-0.711,0.922-1.52,1.771-2.426,2.547c-0.904,0.776-1.842,1.503-2.812,2.183
				s-1.939,1.326-2.91,1.94c-0.971,0.615-1.867,1.229-2.691,1.843c-0.826,0.615-1.545,1.254-2.16,1.916
				c-0.613,0.663-1.035,1.367-1.26,2.11h16.539V156.618z"/>
			<path fill="#0066CC" d="M462.559,121.985c2.426,0,4.404,0.558,5.941,1.673c1.535,1.116,2.732,2.539,3.59,4.269
				c0.855,1.73,1.438,3.63,1.746,5.699c0.307,2.07,0.461,4.075,0.461,6.015c0,1.94-0.154,3.946-0.461,6.015
				c-0.309,2.07-0.891,3.97-1.746,5.7c-0.857,1.73-2.055,3.153-3.59,4.269c-1.537,1.115-3.516,1.673-5.941,1.673
				s-4.406-0.558-5.941-1.673c-1.537-1.116-2.734-2.539-3.59-4.269c-0.857-1.729-1.439-3.63-1.746-5.7
				c-0.309-2.069-0.461-4.074-0.461-6.015c0-1.94,0.152-3.945,0.461-6.015c0.307-2.069,0.889-3.969,1.746-5.699
				c0.855-1.729,2.053-3.153,3.59-4.269C458.152,122.543,460.133,121.985,462.559,121.985z M462.559,152.689
				c1.195,0,2.199-0.347,3.008-1.043c0.807-0.695,1.445-1.633,1.916-2.813c0.467-1.18,0.799-2.562,0.994-4.147
				c0.193-1.584,0.291-3.266,0.291-5.045c0-1.778-0.098-3.451-0.291-5.02c-0.195-1.568-0.527-2.951-0.994-4.147
				c-0.471-1.196-1.109-2.142-1.916-2.837c-0.809-0.695-1.812-1.043-3.008-1.043c-1.23,0-2.24,0.348-3.031,1.043
				c-0.793,0.696-1.424,1.642-1.893,2.837c-0.469,1.197-0.801,2.579-0.994,4.147c-0.193,1.569-0.291,3.242-0.291,5.02
				c0,1.779,0.098,3.461,0.291,5.045c0.193,1.584,0.525,2.967,0.994,4.147c0.469,1.181,1.1,2.118,1.893,2.813
				C460.318,152.342,461.328,152.689,462.559,152.689z"/>
			<path fill="#0066CC" d="M478.613,128.291c1.164,0,2.295-0.097,3.395-0.291s2.094-0.517,2.984-0.97
				c0.889-0.452,1.648-1.034,2.279-1.746c0.631-0.711,1.043-1.584,1.236-2.619h4.512v33.954h-6.062v-23.961h-8.344V128.291z"/>
			<path fill="#0066CC" d="M508.977,122.664h17.561v4.947H513.1l-1.746,8.634l0.098,0.097c0.744-0.84,1.689-1.479,2.838-1.916
				c1.146-0.437,2.287-0.655,3.42-0.655c1.68,0,3.184,0.284,4.51,0.849c1.326,0.566,2.441,1.358,3.348,2.376
				c0.904,1.019,1.592,2.224,2.061,3.614c0.469,1.391,0.703,2.895,0.703,4.511c0,1.358-0.217,2.757-0.654,4.196
				c-0.436,1.439-1.133,2.749-2.086,3.929c-0.953,1.181-2.174,2.151-3.662,2.91c-1.486,0.76-3.266,1.14-5.336,1.14
				c-1.648,0-3.176-0.218-4.582-0.655c-1.408-0.437-2.645-1.091-3.711-1.965c-1.068-0.873-1.916-1.948-2.547-3.226
				c-0.631-1.277-0.979-2.772-1.043-4.486h5.529c0.162,1.843,0.793,3.258,1.893,4.244c1.098,0.987,2.553,1.479,4.365,1.479
				c1.164,0,2.15-0.194,2.959-0.583c0.807-0.388,1.463-0.921,1.965-1.601c0.5-0.679,0.855-1.471,1.066-2.376
				c0.209-0.905,0.314-1.875,0.314-2.911c0-0.938-0.129-1.834-0.387-2.692c-0.26-0.856-0.648-1.608-1.164-2.255
				c-0.518-0.646-1.189-1.164-2.014-1.552s-1.787-0.582-2.887-0.582c-1.164,0-2.256,0.218-3.273,0.655
				c-1.02,0.437-1.754,1.253-2.207,2.45h-5.529L508.977,122.664z"/>
		</g>
	</g>
	<rect x="214.5" y="574.5" fill-rule="evenodd" clip-rule="evenodd" fill="#0066CC" width="371" height="10"/>
</g>
</svg>
